<svg xmlns="http://www.w3.org/2000/svg" width="54.685" height="54.652" viewBox="0 0 54.685 54.652">
  <g id="a7ed97d6a46192d5f64cbba0fef35c63" transform="translate(-5 -5.303)">
    <g id="_Group_" data-name=" Group " transform="translate(5 5.303)">
      <g id="_Group_2" data-name="&lt;Group&gt;" transform="translate(32.743 36.047)">
        <path id="_Path_" data-name="&lt;Path&gt;" d="M311.7,339.713a.872.872,0,0,0-1.206-.011l-4.837,4.542a.872.872,0,1,0,1.194,1.271l4.229-3.971,2.182,2.128a.872.872,0,0,0,1.215,0l4.906-4.751,0,3.072a.872.872,0,0,0,.871.872h0a.872.872,0,0,0,.872-.871l0-5.131a.865.865,0,0,0-.872-.865h-5.237a.872.872,0,1,0,0,1.744h0l3.078,0-4.227,4.093Z" transform="translate(-305.384 -336)" fill="#2c5697"/>
      </g>
      <g id="_Group_3" data-name="&lt;Group&gt;" transform="translate(0 0)">
        <path id="_Path_2" data-name="&lt;Path&gt;" d="M121.687,176.578a.872.872,0,0,0-.872.872,1.032,1.032,0,1,1-2.064,0,.872.872,0,1,0-1.744,0,2.776,2.776,0,1,0,5.552,0A.872.872,0,0,0,121.687,176.578Zm9.519,0a.872.872,0,0,0-.872.872,1.032,1.032,0,0,1-2.064,0,.872.872,0,0,0-1.744,0,2.776,2.776,0,1,0,5.552,0A.872.872,0,0,0,131.206,176.578Z" transform="translate(-104.799 -157.909)" fill="#2c5697"/>
        <path id="_Compound_Path_" data-name="&lt;Compound Path&gt;" d="M42.21,10.027a5.862,5.862,0,0,0-4.52-.92A6.176,6.176,0,0,0,34.706,10.6a12.01,12.01,0,0,0-21.967,6.733v2.958a3.175,3.175,0,0,0-2.4,3.1,3.279,3.279,0,0,0,2.479,3.1,12.263,12.263,0,0,0,3.393,7.059,13.132,13.132,0,0,0,1.867,1.591v2.392H13.526A8.5,8.5,0,0,0,5,45.991v6.736a.869.869,0,0,0,.906.831H35.194V51.814H25.71V42.663l5.479-3.385h5.25c.033,0,.065-.017.1-.017l.023-1.735c-.04,0-.081.008-.122.008H31.815V34.822a9.959,9.959,0,0,0,1.444-1.271A12.294,12.294,0,0,0,36.674,26.5a3.208,3.208,0,0,0,1.054-5.731,5.9,5.9,0,0,0,1.065.1,6.022,6.022,0,0,0,1.059-.094A5.954,5.954,0,0,0,42.21,10.027ZM12.739,24.552a1.33,1.33,0,0,1-.643-1.162,1.355,1.355,0,0,1,.643-1.212Zm12.005-17.5a10.236,10.236,0,0,1,3.361.565,12.043,12.043,0,0,1-8.458,5.5,13.822,13.822,0,0,1-4.259-.047,10.3,10.3,0,0,1,9.356-6.019Zm-.778,44.766H6.744V45.991a6.754,6.754,0,0,1,6.781-6.712h5.21l5.231,3.372Zm6.1-13.927-5.256,3.258L19.824,37.9V36.129a11.819,11.819,0,0,0,10.246-.217Zm4.905-12.941a10.519,10.519,0,0,1-2.994,7.389,9.995,9.995,0,0,1-14.5,0,10.527,10.527,0,0,1-3-7.389V20.519a24.135,24.135,0,0,0,4.269.387c.554,0,1.127-.02,1.723-.067,4.542-.36,8.109-2.167,10.473-5.252a10.923,10.923,0,0,0,4.027,4.352Zm0-7.1A9.088,9.088,0,0,1,31.99,13.51a.858.858,0,0,0-1.581-.225c-2.012,3.475-5.374,5.43-10.02,5.811a22.086,22.086,0,0,1-5.905-.354v-1.41a10.262,10.262,0,0,1,.322-2.6A15.258,15.258,0,0,0,17.676,15a15.228,15.228,0,0,0,2.153-.152,13.874,13.874,0,0,0,9.865-6.517,10.266,10.266,0,0,1,5.282,9Zm1.621-2.56a11.933,11.933,0,0,0-.992-3.119,4.487,4.487,0,0,1,2.421-1.347,4.133,4.133,0,0,1,3.188.639c.09.063.176.129.26.2Zm.123,9.267V22.232a1.46,1.46,0,0,1,0,2.318Zm5.513-7.231A4.224,4.224,0,0,1,36.72,18.6V17.327l5.821-4.312a4.221,4.221,0,0,1-.307,4.3Z" transform="translate(-5 -5.303)" fill="#2c5697"/>
      </g>
    </g>
    <path id="_Compound_Path_2" data-name="&lt;Compound Path&gt;" d="M259.265,272.75a13.485,13.485,0,1,0,13.485-13.485A13.485,13.485,0,0,0,259.265,272.75Zm25.226,0a11.741,11.741,0,1,1-11.741-11.741A11.741,11.741,0,0,1,284.491,272.75Z" transform="translate(-226.55 -226.28)" fill="#2c5697"/>
  </g>
</svg>
