<svg xmlns="http://www.w3.org/2000/svg" width="58.019" height="50.296" viewBox="0 0 58.019 50.296">
  <g id="_1a1266f228affd6b16c3339f9db7feaa" data-name="1a1266f228affd6b16c3339f9db7feaa" transform="translate(0.033 -1.6)">
    <path id="Trazado_34970" data-name="Trazado 34970" d="M12.633,44.107H2.245c-.558,0-.745,0-.745-1.154V40.206a.809.809,0,0,0-.75-.856.809.809,0,0,0-.75.856v2.746a2.692,2.692,0,0,0,.512,2.057,2.019,2.019,0,0,0,1.733.811H12.633a.864.864,0,0,0,0-1.713ZM.75,37.51a.809.809,0,0,0,.75-.856V8.343l22.7.045v14.28a.757.757,0,1,0,1.5,0V8.388a1.654,1.654,0,0,0-1.515-1.763H2.136l3.43-3.312h21.8a1.294,1.294,0,0,1,1.2,1.37v17.38a.757.757,0,1,0,1.5,0V4.683a2.911,2.911,0,0,0-2.7-3.083H5.292a.7.7,0,0,0-.484.2L.353,6.112a1.308,1.308,0,0,0-.242.431A.929.929,0,0,0,0,6.967v29.69a.808.808,0,0,0,.75.853Z" fill="#2c5697"/>
    <path id="Trazado_34971" data-name="Trazado 34971" d="M27.142,21.845a.8.8,0,0,0,.75-.847V6.333a2.392,2.392,0,0,0-2.227-2.519L6.919,3.77h0a.8.8,0,0,0-.75.847.8.8,0,0,0,.75.847l18.747.044a.784.784,0,0,1,.73.825V21a.8.8,0,0,0,.746.847Zm10.33,16.119a.8.8,0,0,0-.75.847v7.04a1.124,1.124,0,0,1-.1.475C36.2,47.235,34.2,50.2,26.2,50.2s-10-2.965-10.427-3.875a1.124,1.124,0,0,1-.1-.474V39.17a.756.756,0,1,0-1.5,0v6.681a3.017,3.017,0,0,0,.268,1.263C15.115,48.551,17.6,51.9,26.2,51.9s11.084-3.342,11.753-4.778a3,3,0,0,0,.27-1.264V38.811a.905.905,0,0,0-.22-.6A.709.709,0,0,0,37.472,37.964Z" fill="#2c5697"/>
    <path id="Trazado_34972" data-name="Trazado 34972" d="M57.358,27.639,32.98,21.011a1.1,1.1,0,0,0-.574,0L4.945,28.177A.717.717,0,0,0,4.932,29.6L30.61,36.664a1.129,1.129,0,0,0,.295.04,1.114,1.114,0,0,0,.31-.044l18.848-5.478v3.6a2.65,2.65,0,0,0-2.2,2.406V38.7a2.862,2.862,0,0,0,3.106,2.528A2.862,2.862,0,0,0,54.071,38.7V37.186a2.642,2.642,0,0,0-2.166-2.4v-4.14l5.469-1.589a.775.775,0,0,0,.612-.714.783.783,0,0,0-.63-.7ZM52.223,38.7a1.29,1.29,0,0,1-2.526,0V37.186a1.29,1.29,0,0,1,2.526,0Zm-1.371-9.34L31.3,27.643a1.026,1.026,0,0,0-.86.3.637.637,0,0,0-.1.756.935.935,0,0,0,.763.438l15.762,1.384L30.895,35.162,8.173,28.91l24.508-6.4,21.563,5.863Z" transform="translate(0 5.496)" fill="#2c5697"/>
  </g>
</svg>
