<svg xmlns="http://www.w3.org/2000/svg" width="115.288" height="115.904" viewBox="0 0 115.288 115.904">
  <path id="Trazado_34936" data-name="Trazado 34936" d="M18.8,85.79l-2.62,4.369,3.129,1.88,5.477-9.128-.029-.018a1.746,1.746,0,0,0,.161-.243l2.32-5.791A31.877,31.877,0,0,0,29.2,69.533a16.031,16.031,0,0,1,6.987-11.007,21.589,21.589,0,0,0,11.5,3.363,19.862,19.862,0,0,0,4.747-.588l7.814,6.253a8.376,8.376,0,0,1,.69,12.463l-1.519,1.519a48.33,48.33,0,0,1-11.463-8.454L42.775,67.9l-2.581,2.581,5.181,5.181a52.03,52.03,0,0,0,12.438,9.154,5.477,5.477,0,0,1-5.378,4.456H50.952A22.736,22.736,0,0,1,42.341,83.9l-5.046-5.046-2.581,2.581,5.046,5.046a26.374,26.374,0,0,0,8.9,5.8,7.282,7.282,0,0,1-6.908,6.09,22.767,22.767,0,0,1-8.542-5.345l-1.395-1.395-2.581,2.581,1.395,1.395a26.415,26.415,0,0,0,7.894,5.4,13.964,13.964,0,0,1-7.509,4.2l-2.68.533a1.809,1.809,0,0,0-.933.5l-7.3,7.3,2.581,2.581,6.912-6.912,2.132-.425a17.6,17.6,0,0,0,10.724-6.775,10.981,10.981,0,0,0,9.833-9.086h.152a9.128,9.128,0,0,0,8.86-7.056,9.1,9.1,0,0,0,5.141,1.579,16.79,16.79,0,0,0,5.316-.863,6.466,6.466,0,0,0,2.16-11.04l-8.3-7.12A11.984,11.984,0,0,0,62.525,64.7l-6.074-4.854a19.987,19.987,0,0,0,4.016-2.589l.991-.825a9.267,9.267,0,0,0,5.528,1.806,7.35,7.35,0,0,0,7.107-5.559A103.093,103.093,0,0,0,113.348,24.1l2.556-3.014-2.786-2.359-2.556,3.014A99.42,99.42,0,0,1,74.015,48.729a7.356,7.356,0,0,0-1.042-2.121l-1.552-2.165a32.271,32.271,0,0,0,4.71-11.4l-3.578-.73A28.729,28.729,0,0,1,69.1,41.3a18.543,18.543,0,0,0-7.761-5.6l.416-.913a17.816,17.816,0,0,0,1.1-11.782l-.2-.809,1.546,1.031,2.026-3.038-5.477-3.651a1.826,1.826,0,0,0-2.026,0,36.023,36.023,0,0,1-11.286,5l-.913.23a1.826,1.826,0,0,0-1.19.955L43.56,26.263a4.96,4.96,0,0,1-4.465,2.766,1.267,1.267,0,0,1-1.265-1.265,1.289,1.289,0,0,1,.08-.445l2.225-5.933A18.634,18.634,0,0,1,50.2,10.849,23.567,23.567,0,0,1,63.341,9.267L70.163,10.4A27.338,27.338,0,0,0,91.541,4.836l2.207-1.765L91.457.219,89.251,1.986A23.662,23.662,0,0,1,70.754,6.8L63.936,5.661A27.249,27.249,0,0,0,48.761,7.487,22.3,22.3,0,0,0,36.713,20.1l-2.225,5.935a4.918,4.918,0,0,0,4.608,6.649,8.666,8.666,0,0,0,3.164-.612,29.235,29.235,0,0,0,2.023,5.723,18.6,18.6,0,0,0-3.737,3.379L39.108,42.9a7.859,7.859,0,0,0-6.1-2.921,7.764,7.764,0,0,0-5.526,2.289l-1.9,1.9a1.826,1.826,0,0,0-.17,2.386l5.039,6.718a21.32,21.32,0,0,0,2.7,2.921,19.727,19.727,0,0,0-7.573,12.83,28.249,28.249,0,0,1-1.734,6.485l-2.028,5.073L.615,89.414l1.406,3.37Zm53.713-5.338a2.808,2.808,0,0,1-1.924,2.669,13.13,13.13,0,0,1-4.157.675,5.49,5.49,0,0,1-3.135-.983l.216-.215a11.932,11.932,0,0,0,3.507-8.149l4.511,3.87a2.813,2.813,0,0,1,.982,2.132ZM45.539,29.788A8.581,8.581,0,0,0,46.817,27.9l1.393-2.786.1-.024a39.756,39.756,0,0,0,10.247-4.177l.749,2.992a14.17,14.17,0,0,1-.876,9.367l-.681,1.481a23.579,23.579,0,0,0-3.8-10.393L50.91,26.391a19.9,19.9,0,0,1,3.1,8.157,18.524,18.524,0,0,0-6.536,1.479,25.478,25.478,0,0,1-1.939-6.238ZM43.349,43.515a14.89,14.89,0,0,1,23.55.876L70,48.731a3.7,3.7,0,0,1-3.016,5.857,5.632,5.632,0,0,1-4.42-2.125l-5.055-6.318a1.826,1.826,0,0,0-1.426-.685,1.572,1.572,0,0,0-.226.015L42.306,47.168,41.357,45.9ZM29.291,45.631l.778-.778a4.3,4.3,0,0,1,6.278.447l3.673,4.905a1.826,1.826,0,0,0,1.687.716l13.592-1.7,3.651,4.564-.807.672a16.352,16.352,0,0,1-10.455,3.779,17.975,17.975,0,0,1-14.313-7.156Z" transform="translate(-0.615 -0.219)" fill="#2c5697"/>
</svg>
