<svg xmlns="http://www.w3.org/2000/svg" width="59.557" height="42.134" viewBox="0 0 59.557 42.134">
  <g id="ee66216b3f2ef8fadf98ec7a7eae3f91" transform="translate(0.2 -74.7)">
    <circle id="Elipse_67" data-name="Elipse 67" cx="0.93" cy="0.93" r="0.93" transform="translate(5.286 103.816)" fill="#2c5697"/>
    <circle id="Elipse_68" data-name="Elipse 68" cx="0.93" cy="0.93" r="0.93" transform="translate(9.226 103.816)" fill="#2c5697"/>
    <path id="Trazado_34874" data-name="Trazado 34874" d="M58.78,351.516H1.13a.933.933,0,0,1-.93-.93V346.03a.933.933,0,0,1,.93-.93H58.78a.933.933,0,0,1,.93.93v4.556A.925.925,0,0,1,58.78,351.516ZM2.06,349.656H57.851v-2.7H2.06Z" transform="translate(-0.354 -238.971)" fill="#2c5697"/>
    <path id="Trazado_34875" data-name="Trazado 34875" d="M38.621,312.316H5.286A5.5,5.5,0,0,1-.2,306.83a.933.933,0,0,1,.93-.93H43.177a.933.933,0,0,1,.93.93A5.5,5.5,0,0,1,38.621,312.316ZM1.776,307.748a3.62,3.62,0,0,0,3.51,2.7H38.621a3.633,3.633,0,0,0,3.51-2.7H1.776Z" transform="translate(0 -204.327)" fill="#2c5697"/>
    <path id="Trazado_34876" data-name="Trazado 34876" d="M139.386,309.915h-8.1a3.19,3.19,0,0,1-3.185-3.185.933.933,0,0,1,.93-.93h12.611a.933.933,0,0,1,.93.93A3.19,3.19,0,0,1,139.386,309.915Zm-9.043-2.255a1.317,1.317,0,0,0,.941.4h8.1a1.317,1.317,0,0,0,.941-.4Z" transform="translate(-113.388 -204.239)" fill="#2c5697"/>
    <path id="Trazado_34877" data-name="Trazado 34877" d="M73.265,103.432H39.93a.933.933,0,0,1-.93-.93V78.849A4.152,4.152,0,0,1,43.149,74.7h26.9a4.152,4.152,0,0,1,4.149,4.149V102.5A.933.933,0,0,1,73.265,103.432Zm-32.405-1.86H72.335V78.849a2.287,2.287,0,0,0-2.29-2.29h-26.9a2.287,2.287,0,0,0-2.29,2.29Z" transform="translate(-34.644)" fill="#2c5697"/>
    <path id="Trazado_34878" data-name="Trazado 34878" d="M92.6,122.709H65.13a.933.933,0,0,1-.93-.93V100.73a.933.933,0,0,1,.93-.93H92.6a.933.933,0,0,1,.93.93v21.049A.933.933,0,0,1,92.6,122.709Zm-26.536-1.86H91.665V101.66H66.06Zm43.807,9.322h-1.546a4.385,4.385,0,0,1-4.382-4.382v-7.811a.933.933,0,0,1,.93-.93h8.438a.933.933,0,0,1,.93.93v7.811A4.368,4.368,0,0,1,109.867,130.171Zm-4.056-11.263v6.881a2.527,2.527,0,0,0,2.522,2.522h1.546a2.527,2.527,0,0,0,2.522-2.522v-6.881Z" transform="translate(-56.915 -22.183)" fill="#2c5697"/>
    <path id="Trazado_34879" data-name="Trazado 34879" d="M443.553,195.243a.905.905,0,0,1-.686-.291.934.934,0,0,1-.244-.709,6.782,6.782,0,0,0,.012-.7c-.012-.174-.012-.314-.035-.465v-.163c.163-1.895.988-5.242,4.614-6.358a8.686,8.686,0,0,1,2.545-.36.932.932,0,0,1,.663.279.949.949,0,0,1,.267.674,11.236,11.236,0,0,1-.93,3.929A6.441,6.441,0,0,1,443.553,195.243Zm.918-2.243c.012.1.012.209.023.325,3.068-.535,3.975-3.568,4.242-5.2a5.74,5.74,0,0,0-.953.209C445.355,189.083,444.634,191.268,444.471,193Z" transform="translate(-391.333 -98.54)" fill="#2c5697"/>
    <path id="Trazado_34880" data-name="Trazado 34880" d="M443.27,239.785h-.035a.924.924,0,0,1-.93-.837c0-.035-.035-.384-.023-.918.012-.209.023-.4.035-.581a.934.934,0,0,1,1.86,0c.012.186.023.36.035.57.012.546-.012.883-.012.918a.925.925,0,0,1-.93.848Z" transform="translate(-391.05 -143.082)" fill="#2c5697"/>
    <path id="Trazado_34881" data-name="Trazado 34881" d="M443.27,239.785h-.035a.924.924,0,0,1-.93-.837c0-.035-.035-.384-.023-.918.012-.209.023-.4.035-.581a.934.934,0,0,1,1.86,0c.012.186.023.36.035.57.012.546-.012.883-.012.918a.925.925,0,0,1-.93.848Z" transform="translate(-391.05 -143.082)" fill="#2c5697"/>
    <path id="Trazado_34882" data-name="Trazado 34882" d="M396.142,195.243a6.472,6.472,0,0,1-6.218-4.149,11.913,11.913,0,0,1-.93-3.94.92.92,0,0,1,.267-.674.952.952,0,0,1,.663-.279,8.431,8.431,0,0,1,2.627.384c3.557,1.151,4.359,4.463,4.521,6.335v.163c-.012.139-.023.3-.035.477a6.956,6.956,0,0,0,.012.7.908.908,0,0,1-.244.7A.824.824,0,0,1,396.142,195.243Zm-5.172-7.113c.267,1.627,1.174,4.672,4.242,5.2a2.87,2.87,0,0,1,.023-.325c-.163-1.72-.872-3.882-3.231-4.649A5.828,5.828,0,0,0,390.969,188.129Z" transform="translate(-343.956 -98.54)" fill="#2c5697"/>
    <path id="Trazado_34883" data-name="Trazado 34883" d="M443.3,239.083h-.116a.931.931,0,0,1-.883-.965c.012-.209.023-.4.035-.57a.934.934,0,0,1,1.86,0c.012.186.023.36.035.57a.893.893,0,0,1-.256.674.923.923,0,0,1-.674.291Z" transform="translate(-391.066 -143.171)" fill="#2c5697"/>
    <path id="Trazado_34884" data-name="Trazado 34884" d="M85.909,177.138a.943.943,0,0,1-.93-.848c-.151-1.732-.837-3.952-3.243-4.731a.9.9,0,0,1-.558-.511.949.949,0,0,1,0-.755,5.236,5.236,0,0,1,9.543-.023.887.887,0,0,1,0,.767.921.921,0,0,1-.57.511c-2.452.756-3.15,3-3.3,4.742a.946.946,0,0,1-.941.848Zm-2.522-6.893a6.013,6.013,0,0,1,2.522,2.569,5.958,5.958,0,0,1,2.58-2.592,3.375,3.375,0,0,0-2.534-1.151A3.334,3.334,0,0,0,83.386,170.245ZM38.87,198.582a.9.9,0,0,1-.709-.337.937.937,0,0,1,.116-1.313l5.137-4.3a.932.932,0,0,1,1.2,1.43l-5.137,4.3a.948.948,0,0,1-.6.221Zm48.84,0a.9.9,0,0,1-.593-.221L82,194.061a.932.932,0,0,1,1.2-1.43l5.114,4.3a.936.936,0,0,1,.116,1.313.906.906,0,0,1-.721.337Z" transform="translate(-33.712 -81.749)" fill="#2c5697"/>
  </g>
</svg>
