<svg xmlns="http://www.w3.org/2000/svg" xmlns:xlink="http://www.w3.org/1999/xlink" width="327.275" height="83.37" viewBox="0 0 327.275 83.37">
  <defs>
    <clipPath id="clip-path">
      <rect id="Rectángulo_1305" data-name="Rectángulo 1305" width="327.275" height="83.37" fill="none"/>
    </clipPath>
  </defs>
  <g id="Grupo_8895" data-name="Grupo 8895" clip-path="url(#clip-path)">
    <path id="Trazado_34804" data-name="Trazado 34804" d="M965.256,49.744A19.276,19.276,0,0,0,963.21,53.6c-3.446,7.636-6.768,15.333-11,22.586a35.418,35.418,0,0,1-5.651,7.727,10.466,10.466,0,0,1-1.2,1.034c-1.724,1.232-3.234.868-4.217-1.009a20.766,20.766,0,0,1-2.371-9.115,208.846,208.846,0,0,1,.219-21.741c.049-.664.006-1.336.006-2.138a2.653,2.653,0,0,0-.676,1.292C936.7,57.3,935.636,62.5,934.474,67.674c-1.213,5.407-2.379,10.826-3.294,16.294a46.661,46.661,0,0,0-.624,4.975c-.128,2.189-1.542,3.2-3.681,2.617a4.548,4.548,0,0,1-3.415-4.4,33.3,33.3,0,0,1,.767-6.1c1.179-7.148,2.469-14.276,4.195-21.317A157.05,157.05,0,0,1,933.4,42.7a14.4,14.4,0,0,1,1.881-3.568c1.548-2.108,3.1-2.626,5.608-1.882,3.034.9,4.307,2.635,4.679,6.257a95.687,95.687,0,0,1,.072,10.122c-.006,2.084-.065,4.169-.1,6.253-.057,3.523-.123,7.046-.16,10.569-.006.56-.206,1.357.413,1.579.584.209.912-.526,1.227-.957a77.952,77.952,0,0,0,5.818-9.935c3.961-7.52,7.8-15.106,12.36-22.3a38.113,38.113,0,0,1,6.129-7.81,9.178,9.178,0,0,1,1.846-1.346,3.023,3.023,0,0,1,3.545.15,3.262,3.262,0,0,1,1.417,3.455,61.273,61.273,0,0,1-2.286,6.822c-3.38,9.9-6.761,19.8-9.16,30a72.353,72.353,0,0,0-2.3,16.436,15.659,15.659,0,0,0,.758,5.288,7.774,7.774,0,0,0,1.408,2.517c.645.754.621,1.193-.067,1.9a5.991,5.991,0,0,1-7.1.351,4.013,4.013,0,0,1-1.289-2.71c-.834-6.008-.1-11.938.778-17.878a167.712,167.712,0,0,1,5.99-24.752c.153-.5.255-1.011.381-1.517" transform="translate(-760.218 -24.029)"/>
    <path id="Trazado_34805" data-name="Trazado 34805" d="M289.5,49.682c-.594,1.3-1.2,2.591-1.78,3.893-3.483,7.746-6.862,15.543-11.166,22.889a37.72,37.72,0,0,1-5.024,7,13.147,13.147,0,0,1-1.559,1.424c-1.747,1.332-3.337.984-4.355-.962a20.373,20.373,0,0,1-1.929-5.54,55.53,55.53,0,0,1-.551-9.834c-.1-5.521.054-11.039.344-16.553.015-.277,0-.556,0-1.026a3.136,3.136,0,0,0-.7,1.374c-1.46,4.558-2.448,9.236-3.491,13.9-1.408,6.295-2.816,12.592-3.8,18.97-.193,1.245-.333,2.5-.426,3.759-.16,2.178-1.582,3.2-3.707,2.606a4.589,4.589,0,0,1-3.387-4.154,28.019,28.019,0,0,1,.73-6.192c1.329-8.195,2.85-16.353,4.938-24.394a130.655,130.655,0,0,1,4.365-14.369,14.488,14.488,0,0,1,1.828-3.4,4.433,4.433,0,0,1,5.479-1.834c3.079.91,4.4,2.65,4.739,6.212a110.4,110.4,0,0,1,.057,11.442c-.015,1.909-.058,3.817-.087,5.726-.05,3.288-.1,6.576-.144,9.864-.007.571-.181,1.382.434,1.57s.944-.585,1.276-1.043a75.082,75.082,0,0,0,5.427-9.244c3.961-7.519,7.808-15.1,12.309-22.323a42.125,42.125,0,0,1,6.129-8.039,10.1,10.1,0,0,1,2.235-1.705,3.03,3.03,0,0,1,3.541.165,3.3,3.3,0,0,1,1.411,3.461,44.739,44.739,0,0,1-1.941,5.828c-3.375,9.745-6.7,19.508-9.159,29.533-1.492,6.077-2.742,12.2-2.614,18.509.055,2.68.434,5.265,2.315,7.388a1.046,1.046,0,0,1-.085,1.507,4.863,4.863,0,0,1-4.418,1.475c-2.854-.242-3.828-1.326-4.189-4.121-.706-5.451-.111-10.832.652-16.221a162.429,162.429,0,0,1,6.163-25.885c.131-.418.217-.852.313-1.281a1.609,1.609,0,0,0,0-.342l-.179-.028" transform="translate(-204.121 -24.041)"/>
    <path id="Trazado_34806" data-name="Trazado 34806" d="M665.745,42.218a54.371,54.371,0,0,0-2.286,6.436c-1.636,4.887-3.124,9.822-4.913,14.658a13.461,13.461,0,0,1-1.885,3.562,5.379,5.379,0,0,1-8.517.092,10.311,10.311,0,0,1-1.981-5.378,44.151,44.151,0,0,1,3.452-23.21A57.375,57.375,0,0,1,654.4,29.49a8.27,8.27,0,0,1,7.409-4.126,8,8,0,0,0,1.833-.221,4.741,4.741,0,0,0,3.558-2.96A119.457,119.457,0,0,0,671.061,10.6c.758-2.524,1.477-5.061,2.283-7.57.963-3,2.149-3.641,5.349-2.49a2.87,2.87,0,0,1,2.029,3.6,62.074,62.074,0,0,1-1.81,7.065c-1.927,6.643-3.94,13.264-5.274,20.061a114.217,114.217,0,0,0-1.9,17.13c-.26,6.078-.176,12.159-.092,18.237A26.466,26.466,0,0,0,674.6,79.094a5.1,5.1,0,0,0,1.209,1.705,1.443,1.443,0,0,1,.5,1.514c-.137.567-.656.7-1.146.826-2.2.567-3.5.129-4.8-1.753a25.063,25.063,0,0,1-3.517-8.663,55.965,55.965,0,0,1-1.325-12.757c-.024-5.725-.077-11.453.352-17.17a3.294,3.294,0,0,0-.119-.578M652.269,57.678c0,1.028-.01,2.056.006,3.083a.644.644,0,0,0,.434.7c.373.109.553-.165.682-.421a16,16,0,0,0,.88-1.913c1.745-5.007,3.444-10.031,5.318-14.993A101.1,101.1,0,0,0,663.547,32.5a5.971,5.971,0,0,0,.211-1.56c-.02-.715-.4-.894-.971-.483a7.673,7.673,0,0,0-1.171,1.062A34,34,0,0,0,654.1,45.09a47.27,47.27,0,0,0-1.833,12.588" transform="translate(-531.647 0)"/>
    <path id="Trazado_34807" data-name="Trazado 34807" d="M1373.117,186.186a23.442,23.442,0,0,0-5.079,5.559,35.631,35.631,0,0,0-5.318,12.551,11.856,11.856,0,0,1-.529,1.763c-.72,1.786-1.713,2.378-3.59,1.99-2.133-.441-3.82-1.548-3.475-4.4.987-8.158,1.96-16.317,3.221-24.438.286-1.838,1.226-2.5,3.089-2.272,3.109.382,4.453,2.385,3.668,5.495a13.17,13.17,0,0,0-.625,3.54c.009.364-.088.772.246,1.076.348-.073.417-.387.549-.637a11.659,11.659,0,0,1,8.534-6.152c.414-.081.527-.238.559-.607a8.492,8.492,0,0,1,.682-2.628c.069-.161.142-.322.227-.476.73-1.322,2.6-1.765,4.68-1.111a2.658,2.658,0,0,1,2.04,3.141c-.4,2.579-.915,5.14-1.33,7.717a30.736,30.736,0,0,0-.475,5.609c.008.337-.135.857.227.951.417.108.579-.416.737-.737.945-1.917,1.852-3.853,2.8-5.768,1.313-2.652,2.682-5.276,3.97-7.94,1.519-3.141,4.312-2.616,6.11-1.36a1.955,1.955,0,0,1,.828,2.527,82.844,82.844,0,0,1-3.9,8.742c-2.479,5.083-4.969,10.163-7.784,15.073-1.535,2.679-2.583,3.167-5.53,2.765a5.982,5.982,0,0,1-5.028-4.344,9.51,9.51,0,0,1-.277-2.266,69.323,69.323,0,0,1,.89-13.248c.007-.075.047-.194.016-.215-.1-.07-.11.04-.138.1" transform="translate(-1115.543 -144.181)"/>
    <path id="Trazado_34808" data-name="Trazado 34808" d="M1216.914,187.826a37.049,37.049,0,0,1-1.016,5.363c-.587,3.328-1.171,6.654-.455,10.041a15.661,15.661,0,0,0,.989,3c.549,1.264.263,1.876-1.114,1.963a6.753,6.753,0,0,1-5.536-2.594,8.873,8.873,0,0,1-2.017-5.955c-.02-.674-.05-1.348-.1-2.02-.02-.287-.032-.672-.3-.782-.345-.142-.462.282-.625.485-1.677,2.082-3.324,4.188-5,6.268-.793.982-1.613,1.947-2.471,2.872a4.563,4.563,0,0,1-5.158,1.5,5.837,5.837,0,0,1-4.3-4.658c-.394-2.292.365-4.424,1-6.545a47.549,47.549,0,0,1,8.607-15.91c1.376-1.735,3.023-3.168,5.391-3.316a5.758,5.758,0,0,1,5.151,2.516c.623.826.407,1.957-.448,3.079a1.946,1.946,0,0,1-2.424.717,3.812,3.812,0,0,1-.649-.271c-1.142-.588-1.315-.562-2.1.493a39.042,39.042,0,0,0-4.02,7c-1,2.153-1.871,4.358-2.7,6.581-.1.273-.175.558-.252.841-.061.221-.186.475.08.634.245.147.444-.046.631-.176a16.989,16.989,0,0,0,3.007-2.959c2.834-3.258,5.377-6.761,8.322-9.927a24.444,24.444,0,0,1,1.742-1.749c2.168-1.9,4.875-1.034,5.521,1.77.131.568.163,1.159.242,1.74" transform="translate(-979.401 -146.141)"/>
    <path id="Trazado_34809" data-name="Trazado 34809" d="M1580.642,187.875a36.852,36.852,0,0,1-1.013,5.359c-.58,3.3-1.159,6.6-.46,9.955a15.7,15.7,0,0,0,1.048,3.16c.492,1.112.2,1.715-1.012,1.84-2.381.248-4.189-.931-5.7-2.589a8.852,8.852,0,0,1-2.007-5.958c-.024-.732-.061-1.466-.128-2.2-.02-.215-.034-.52-.284-.6-.285-.092-.386.223-.517.387-1.728,2.154-3.432,4.327-5.167,6.475-.775.959-1.579,1.9-2.42,2.8a4.547,4.547,0,0,1-5.082,1.5,5.923,5.923,0,0,1-4.333-4.532,11.43,11.43,0,0,1,.6-5.37,47.292,47.292,0,0,1,9.067-17.321,7.443,7.443,0,0,1,5.172-3.207,5.767,5.767,0,0,1,5.264,2.451c.681.871.417,2.178-.543,3.291a2.132,2.132,0,0,1-2.73.374c-1.28-.745-1.514-.717-2.49.641A53.67,53.67,0,0,0,1561.7,196.8c-.229.6-.424,1.215-.626,1.826a.423.423,0,0,0,.065.492c.2.174.4.046.561-.061a10.566,10.566,0,0,0,1.9-1.695c2.778-2.961,5.15-6.26,7.805-9.324,1.02-1.177,2.048-2.347,3.176-3.422a3.886,3.886,0,0,1,1.836-1.16c2.121-.452,3.615.623,4.038,2.934.089.489.125.987.186,1.481" transform="translate(-1278.831 -146.165)"/>
    <path id="Trazado_34810" data-name="Trazado 34810" d="M1718.836,91.877a71.057,71.057,0,0,1,2.408-17.931c2.317-9.177,4.763-18.322,7.179-27.474.661-2.5,2.256-3.372,4.552-2.572a2.492,2.492,0,0,1,1.869,2.9A51.506,51.506,0,0,1,1733.3,53.3c-2.355,9.327-4.6,18.679-6.215,28.168a68.666,68.666,0,0,0-1.313,14.181,9.767,9.767,0,0,0,.41,2.6c.482,1.522,1.276,1.895,2.748,1.3a16.877,16.877,0,0,0,3.8-2.366c2.107-1.606,4.064-3.387,6.012-5.178,1.154-1.063,2.07-1.254,2.886-.615s.861,1.619.073,2.947c-2.11,3.551-4.6,6.753-8.363,8.727a12.264,12.264,0,0,1-7.588,1.371,6.563,6.563,0,0,1-5.47-4.284,21.7,21.7,0,0,1-1.45-8.268" transform="translate(-1414.994 -35.903)"/>
    <path id="Trazado_34811" data-name="Trazado 34811" d="M834.561,191.425c.171,4.947-1.553,9.321-4.113,13.411a9.671,9.671,0,0,1-5.142,4.229c-2.567.858-6.192-.5-7.967-2.9a11.728,11.728,0,0,1-2.039-9.022,54.218,54.218,0,0,1,5.986-17.814c1.392-2.587,3.461-3.44,6.2-2.638a3.739,3.739,0,0,1,2.768,3.006,3.444,3.444,0,0,0,.994,1.915c2.335,2.157,3.145,4.939,3.328,7.984a6.927,6.927,0,0,1-.014,1.832m-7.042-7.3c-2.822,1.988-6.678,14.709-5.078,18.629,4.787-2.515,7.933-14.056,5.078-18.629" transform="translate(-671.042 -145.215)"/>
    <path id="Trazado_34812" data-name="Trazado 34812" d="M549.774,191.811a23.941,23.941,0,0,1-4.542,13.718,9.849,9.849,0,0,1-3.528,3.132c-2.949,1.592-7.077.472-9.223-2.483a11.609,11.609,0,0,1-2-8.776,52.98,52.98,0,0,1,6.109-18.131c1.333-2.42,3.2-3.17,5.847-2.534a3.776,3.776,0,0,1,3,2.988,3.59,3.59,0,0,0,.964,1.928,11.249,11.249,0,0,1,3.377,7.97,15.953,15.953,0,0,1-.006,2.188m-12.395,11.117c4.6-1.876,8.377-13.81,5.171-18.93a30.88,30.88,0,0,0-5.171,18.93" transform="translate(-436.587 -145.318)"/>
    <path id="Trazado_34813" data-name="Trazado 34813" d="M12.661,209.079a81.525,81.525,0,0,1-9.5-.573,3.273,3.273,0,0,1-2.868-1.891,1.774,1.774,0,0,1,.676-2.441,8.306,8.306,0,0,1,3.643-1.235,56.071,56.071,0,0,1,8.334-.805c3.466-.287,6.932.028,10.4.012,2.988.123,5.977.226,8.964.38a5.687,5.687,0,0,1,3.121,1.065,2.2,2.2,0,0,1,.8,2.861,4.821,4.821,0,0,1-4.338,2.955,74.2,74.2,0,0,1-8.269.09,2.464,2.464,0,0,0-1.045.083.751.751,0,0,0-.569-.166q-4.674-.166-9.349-.336" transform="translate(-0.058 -166.303)" fill="#4f2086"/>
    <path id="Trazado_34814" data-name="Trazado 34814" d="M22.247,268.329c3.323.012,6.642.145,9.956.371a5.694,5.694,0,0,1,3.343,1.22,2.114,2.114,0,0,1,.7,2.523,4.706,4.706,0,0,1-4.13,3.117,71.474,71.474,0,0,1-8.377.152c-.646.007-1.292.03-1.938.045a7.688,7.688,0,0,0-2.668-.193c-2.126-.083-4.25-.273-6.381-.173-2.008-.305-4.039-.2-6.057-.338a20.588,20.588,0,0,1-4.353-.542,3.036,3.036,0,0,1-1.767-1.079c-.99-1.418-.7-2.594.861-3.388a12.709,12.709,0,0,1,4.241-1.076,48.16,48.16,0,0,1,6.914-.633c3.219-.123,6.438-.1,9.657,0" transform="translate(0 -220.832)" fill="#9d9c9c"/>
    <path id="Trazado_34815" data-name="Trazado 34815" d="M24.83,138.784c2.075.246,4.165.188,6.247.3a8.789,8.789,0,0,1,3.915.883,2.359,2.359,0,0,1,1.073,3.549,5.126,5.126,0,0,1-4.78,2.615c-2.5.084-5,.043-7.5.056l-10.517-.356c-3.129-.247-6.276-.188-9.4-.534a6.822,6.822,0,0,1-2.356-.669,2.559,2.559,0,0,1-1.418-2.266c-.063-.969.661-1.453,1.409-1.832a16.691,16.691,0,0,1,5.282-1.23,70.1,70.1,0,0,1,7.277-.589q2.06.019,4.119.036,3.324.024,6.648.043" transform="translate(-0.075 -114.186)" fill="#0156c2"/>
    <path id="Trazado_34816" data-name="Trazado 34816" d="M89.9,85.051q-3.324-.021-6.648-.043-2.06-.015-4.119-.036A77.515,77.515,0,0,1,80.443,77c.67-2.957,2.71-4.059,5.994-3.366,2.938.62,4.378,2.793,4.145,6.191-.121,1.758-.462,3.483-.687,5.225" transform="translate(-65.14 -60.454)"/>
    <path id="Trazado_34817" data-name="Trazado 34817" d="M72.129,308.51c2.131-.1,4.255.09,6.381.173a7.689,7.689,0,0,1,2.668.193c-.246,1.927.408,3.773.505,5.669a15.4,15.4,0,0,1-.089,2.368,1.378,1.378,0,0,1-1.044,1.265c-2.822.911-5.706.383-7.186-2.891a17.51,17.51,0,0,1-1.235-6.777" transform="translate(-59.379 -253.951)"/>
    <path id="Trazado_34818" data-name="Trazado 34818" d="M80.88,246.7c-3.219-.093-6.438-.118-9.657,0q.006-2.364.013-4.727,4.675.169,9.349.336a.751.751,0,0,1,.569.166l-.275,4.22" transform="translate(-58.633 -199.206)"/>
    <path id="Trazado_34819" data-name="Trazado 34819" d="M73.209,178.989l10.517.356-.423,3.847c-3.466.016-6.932-.3-10.4-.012l.3-4.191" transform="translate(-60.018 -147.349)"/>
    <path id="Trazado_34820" data-name="Trazado 34820" d="M1457.11,237.045c.029-.062.041-.172.139-.1.03.022-.009.141-.017.215-.042-.036-.083-.074-.122-.114" transform="translate(-1199.536 -195.04)" fill="#fefefe"/>
  </g>
</svg>
