<svg xmlns="http://www.w3.org/2000/svg" xmlns:xlink="http://www.w3.org/1999/xlink" width="200" height="200" viewBox="0 0 200 200">
  <metadata><?xpacket begin="﻿" id="W5M0MpCehiHzreSzNTczkc9d"?>
<x:xmpmeta xmlns:x="adobe:ns:meta/" x:xmptk="Adobe XMP Core 5.6-c142 79.160924, 2017/07/13-01:06:39        ">
   <rdf:RDF xmlns:rdf="http://www.w3.org/1999/02/22-rdf-syntax-ns#">
      <rdf:Description rdf:about=""/>
   </rdf:RDF>
</x:xmpmeta>
                                                                                                    
                                                                                                    
                                                                                                    
                                                                                                    
                                                                                                    
                                                                                                    
                                                                                                    
                                                                                                    
                                                                                                    
                                                                                                    
                                                                                                    
                                                                                                    
                                                                                                    
                                                                                                    
                                                                                                    
                                                                                                    
                                                                                                    
                                                                                                    
                                                                                                    
                                                                                                    
                           
<?xpacket end="w"?></metadata>
<defs>
    <style>
      .cls-1 {
        fill: #f6f6f6;
        fill-rule: evenodd;
        filter: url(#filter);
      }
    </style>
    <filter id="filter" x="2" y="15.969" width="195" height="184.031" filterUnits="userSpaceOnUse">
      <feFlood result="flood" flood-color="#dbdbdb"/>
      <feComposite result="composite" operator="in" in2="SourceGraphic"/>
      <feBlend result="blend" in2="SourceGraphic"/>
    </filter>
  </defs>
  <g id="Mesa_de_trabajo_1" data-name="Mesa de trabajo 1">
    <path id="Forma_2" data-name="Forma 2" class="cls-1" d="M197,200H2c-0.416-18.787,7.76-50.342,14.083-63.753,4.307-.382,7.477-2.249,10.833-3.242,12.951-3.831,26.851-3.032,36.833-9.725l5.417-6.484,8.667-4.322V103.83c-3.575-3.544-1.768-9.175-4.333-14.048C72.086,87.1,66.108,81.148,64.833,77.9c-2.354-6.005-1.464-19,0-24.853l1.083-11.886c3.723-10.789,14.25-19.9,24.917-23.772,16.046-5.821,45.571,7.633,46.584,20.531,3.234,4.523-.617,14.288,1.083,20.531,6.18,22.69-14.2,30.08-9.75,55.109,7.8,3.735,8.663,9.436,14.083,12.967,2.6,1.7,5.531.958,8.667,2.161,6.156,2.361,13.574,6.156,19.5,8.644l6.5,1.081C190.366,145.142,197.053,179.731,197,200Z"/>
  </g>
</svg>
