<?xml version="1.0" encoding="UTF-8"?>
<svg id="Layer_2" data-name="Layer 2" xmlns="http://www.w3.org/2000/svg" viewBox="0 0 1000 1320">
  <defs>
    <style>
      .cls-1 {
        fill: #fff;
      }
    </style>
  </defs>
  <path class="cls-1" d="M417.04,620.19c-1.89,0-3.09,1-3.59,3.01h7.15c-.52-2-1.71-3.01-3.55-3.01Z"/>
  <path class="cls-1" d="M521.67,629c1.17,0,2.13-.39,2.88-1.18,.75-.79,1.12-1.79,1.12-3.02s-.37-2.23-1.12-3.02c-.75-.79-1.71-1.18-2.88-1.18s-2.2,.4-2.97,1.19c-.77,.79-1.15,1.8-1.15,3.01s.38,2.2,1.15,3c.77,.8,1.76,1.2,2.97,1.2Z"/>
  <path class="cls-1" d="M613.94,668.71c-1.24,0-2.24,.43-3.02,1.28-.77,.85-1.16,1.92-1.16,3.21s.39,2.38,1.16,3.23c.78,.85,1.78,1.28,3.02,1.28s2.23-.43,3.02-1.28c.79-.85,1.18-1.93,1.18-3.23s-.39-2.38-1.18-3.22c-.79-.85-1.79-1.27-3.02-1.27Z"/>
  <path class="cls-1" d="M568.28,621.98c-.79-.85-1.79-1.27-3.02-1.27s-2.24,.43-3.02,1.28c-.77,.85-1.16,1.92-1.16,3.21s.39,2.38,1.16,3.23c.78,.85,1.78,1.28,3.02,1.28s2.23-.43,3.02-1.28c.79-.85,1.18-1.93,1.18-3.23s-.39-2.38-1.18-3.22Z"/>
  <polygon class="cls-1" points="446.01 671.12 452.81 671.12 449.41 661.66 446.01 671.12"/>
  <path class="cls-1" d="M492.05,668.6c-1.21,0-2.2,.4-2.97,1.19-.77,.79-1.15,1.8-1.15,3.01s.38,2.2,1.15,3c.77,.8,1.76,1.2,2.97,1.2s2.13-.39,2.88-1.18c.75-.79,1.12-1.79,1.12-3.02s-.37-2.23-1.12-3.02c-.75-.79-1.71-1.18-2.88-1.18Z"/>
  <path class="cls-1" d="M442.79,628.44c.79-.85,1.18-1.93,1.18-3.23s-.39-2.38-1.18-3.22c-.79-.85-1.79-1.27-3.02-1.27s-2.24,.43-3.02,1.28c-.77,.85-1.16,1.92-1.16,3.21s.39,2.38,1.16,3.23c.77,.85,1.78,1.28,3.02,1.28s2.23-.43,3.02-1.28Z"/>
  <path class="cls-1" d="M375.26,620.19c-1.89,0-3.09,1-3.59,3.01h7.15c-.52-2-1.71-3.01-3.55-3.01Z"/>
  <path class="cls-1" d="M515.51,668.19c-1.89,0-3.09,1-3.59,3.01h7.15c-.52-2-1.71-3.01-3.55-3.01Z"/>
  <path class="cls-1" d="M463.91,629.72c1.22,0,2.23-.43,3.02-1.28,.79-.85,1.18-1.93,1.18-3.23s-.39-2.38-1.18-3.22c-.79-.85-1.79-1.27-3.02-1.27s-2.24,.43-3.02,1.28c-.77,.85-1.16,1.92-1.16,3.21s.39,2.38,1.16,3.23c.77,.85,1.78,1.28,3.02,1.28Z"/>
  <path class="cls-1" d="M0,0V1320H1000V0H0ZM545.07,606.22h6.25v28.81h-6.25v-28.81Zm-31.39,11.51c1.73-1.91,3.9-2.86,6.5-2.86,2.36,0,4.19,.86,5.49,2.58v-2.05h6.05v17.75c0,3.19-.96,5.7-2.89,7.53-1.93,1.83-4.51,2.74-7.75,2.74-1.68,0-3.3-.21-4.87-.64-1.57-.43-2.93-1.05-4.07-1.86l2.21-4.98c1.88,1.34,3.98,2.01,6.31,2.01,1.38,0,2.55-.39,3.51-1.16,.96-.77,1.44-1.9,1.44-3.37v-1.21c-1.29,1.65-3.09,2.48-5.41,2.48-1.72,0-3.27-.44-4.67-1.31-1.39-.87-2.48-2.06-3.26-3.57-.78-1.51-1.17-3.18-1.17-5.02,0-2.8,.87-5.15,2.6-7.06Zm-24.59-2.33h6v2.46c1.2-1.99,3.14-2.99,5.84-2.99,2.01,0,3.67,.66,4.98,1.98,1.32,1.32,1.97,3.09,1.97,5.3v12.87h-6.25v-10.66c0-1.16-.27-2.05-.82-2.68-.55-.62-1.31-.94-2.29-.94-.92,0-1.69,.32-2.29,.95-.6,.63-.9,1.55-.9,2.76v10.57h-6.25v-19.63Zm-10.21-8.71c.71-.72,1.6-1.07,2.67-1.07s1.94,.36,2.67,1.07c.72,.72,1.08,1.61,1.08,2.68s-.36,1.94-1.08,2.66c-.72,.72-1.61,1.07-2.67,1.07s-1.96-.36-2.67-1.07c-.71-.72-1.06-1.6-1.06-2.66s.35-1.96,1.06-2.68Zm5.83,8.71v19.63h-6.25v-19.63h6.25Zm-28.81,2.45c1.74-1.99,3.92-2.98,6.52-2.98,2.29,0,4.1,.81,5.43,2.42v-11.07h6.23v28.81h-6.04v-2.13c-1.34,1.77-3.22,2.66-5.64,2.66-1.72,0-3.27-.46-4.67-1.38-1.39-.92-2.48-2.17-3.27-3.75-.79-1.58-1.18-3.33-1.18-5.24,0-2.9,.87-5.35,2.62-7.33Zm-115.41-4.62h-8.28v21.8h-6.68v-21.8h-8.3v-6.21h23.26v6.21Zm21.48,21.8h-6.25v-10.66c0-1.16-.27-2.05-.82-2.68s-1.31-.94-2.29-.94c-.92,0-1.69,.32-2.29,.95-.6,.63-.9,1.55-.9,2.76v10.57h-6.25v-28.83h6.25v11.27c1.2-1.73,3.06-2.6,5.59-2.6,2,0,3.67,.66,4.98,1.98,1.31,1.32,1.97,3.09,1.97,5.3v12.87Zm22.97-7.87h-13.3c.51,2.08,1.91,3.12,4.2,3.12,1.59,0,3.01-.57,4.28-1.72l4.04,3.77c-2.15,2.15-5.03,3.22-8.63,3.22-3.09,0-5.58-.94-7.49-2.83-1.91-1.89-2.86-4.36-2.86-7.4s.93-5.6,2.79-7.54c1.86-1.94,4.28-2.91,7.27-2.91s5.26,.95,7.08,2.86c1.82,1.91,2.73,4.4,2.74,7.47,0,.87-.04,1.52-.12,1.95Zm15.85,55.87h-6.25v-19.63h6.25v19.63Zm-.5-23.01c-.72,.72-1.61,1.07-2.67,1.07s-1.96-.36-2.67-1.07c-.71-.72-1.06-1.6-1.06-2.66s.35-1.96,1.06-2.68c.71-.72,1.6-1.07,2.67-1.07s1.94,.36,2.67,1.07c.72,.72,1.08,1.61,1.08,2.68s-.36,1.94-1.08,2.66Zm3.34-24.99h-6.25v-28.81h6.25v28.81Zm20.32,48h-6.25v-10.66c0-1.16-.27-2.05-.82-2.68s-1.31-.94-2.29-.94c-.92,0-1.69,.32-2.29,.95-.6,.63-.9,1.55-.9,2.76v10.57h-6.25v-19.63h6v2.46c1.2-1.99,3.14-2.99,5.84-2.99,2,0,3.67,.66,4.98,1.98,1.31,1.32,1.97,3.09,1.97,5.3v12.87Zm2.76-55.87h-13.3c.51,2.08,1.91,3.12,4.2,3.12,1.59,0,3.01-.57,4.28-1.72l4.04,3.77c-2.15,2.15-5.03,3.22-8.63,3.22-3.09,0-5.58-.94-7.49-2.83-1.91-1.89-2.86-4.36-2.86-7.4s.93-5.6,2.79-7.54c1.86-1.94,4.28-2.91,7.27-2.91s5.26,.95,7.08,2.86c1.82,1.91,2.73,4.4,2.74,7.47,0,.87-.04,1.52-.12,1.95Zm3.6,3.27c-.79-1.58-1.18-3.33-1.18-5.24,0-2.9,.87-5.35,2.62-7.33,1.74-1.99,3.92-2.98,6.52-2.98,2.41,0,4.28,.89,5.62,2.66v-2.13h6.05v19.63h-6.05v-2.13c-1.34,1.77-3.22,2.66-5.64,2.66-1.72,0-3.27-.46-4.67-1.38-1.39-.92-2.48-2.17-3.27-3.75Zm26.76,52.6l-2.11-5.88h-11.13l-2.11,5.88h-6.99l10.74-28.01h7.99l10.74,28.01h-7.13Zm22.52-13.61c-1.08-.35-2.13-.53-3.14-.53-2.38,0-3.57,1.18-3.57,3.54v10.61h-6.25v-19.63h6v2.27c1.12-1.86,2.9-2.79,5.35-2.79,.77,0,1.5,.1,2.21,.29l-.59,6.25Zm22.5,11.74c0,3.19-.96,5.7-2.89,7.53-1.93,1.83-4.51,2.74-7.75,2.74-1.68,0-3.3-.21-4.87-.64-1.57-.43-2.93-1.05-4.07-1.86l2.21-4.98c1.88,1.34,3.98,2.01,6.31,2.01,1.38,0,2.55-.39,3.51-1.16,.96-.77,1.44-1.9,1.44-3.37v-1.21c-1.29,1.65-3.09,2.48-5.41,2.48-1.72,0-3.27-.44-4.67-1.31-1.39-.87-2.48-2.06-3.26-3.57-.78-1.51-1.17-3.18-1.17-5.02,0-2.8,.87-5.15,2.6-7.06,1.73-1.91,3.9-2.86,6.5-2.86,2.36,0,4.19,.86,5.49,2.58v-2.05h6.05v17.75Zm23.09-6h-13.3c.51,2.08,1.91,3.12,4.2,3.12,1.59,0,3.01-.57,4.28-1.72l4.04,3.77c-2.15,2.15-5.03,3.22-8.63,3.22-3.09,0-5.58-.94-7.49-2.83-1.91-1.89-2.86-4.36-2.86-7.4s.93-5.6,2.79-7.54c1.86-1.94,4.28-2.91,7.27-2.91s5.26,.95,7.08,2.86c1.82,1.91,2.73,4.4,2.74,7.47,0,.87-.04,1.52-.12,1.95Zm22.27,7.87h-6.25v-10.66c0-1.16-.27-2.05-.82-2.68s-1.31-.94-2.29-.94c-.92,0-1.69,.32-2.29,.95-.6,.63-.9,1.55-.9,2.76v10.57h-6.25v-19.63h6v2.46c1.2-1.99,3.14-2.99,5.84-2.99,2.01,0,3.67,.66,4.98,1.98,1.32,1.32,1.97,3.09,1.97,5.3v12.87Zm17.64-.03c-1.08,.37-2.36,.56-3.83,.56-2.55,0-4.46-.71-5.73-2.13-1.27-1.42-1.9-3.4-1.9-5.94v-6.54h-3.65v-5.55h3.65v-5.7h6.27v5.7h6.7v5.55h-6.7v5.74c0,2.02,.92,3.03,2.77,3.03,.9,0,2.03-.41,3.4-1.23l2.17,4.88c-1.02,.72-2.06,1.26-3.14,1.63Zm-1.34-47.44c-1.72,0-3.27-.46-4.67-1.38-1.39-.92-2.48-2.17-3.27-3.75-.79-1.58-1.18-3.33-1.18-5.24,0-2.9,.87-5.35,2.62-7.33,1.75-1.99,3.92-2.98,6.52-2.98,2.41,0,4.28,.89,5.62,2.66v-2.13h6.05v19.63h-6.05v-2.13c-1.34,1.77-3.22,2.66-5.64,2.66Zm13.19,47.47h-6.25v-19.63h6.25v19.63Zm-.5-23.01c-.72,.72-1.61,1.07-2.67,1.07s-1.96-.36-2.67-1.07c-.71-.72-1.06-1.6-1.06-2.66s.36-1.96,1.06-2.68c.71-.72,1.6-1.07,2.67-1.07s1.94,.36,2.67,1.07c.72,.72,1.08,1.61,1.08,2.68s-.36,1.94-1.08,2.66Zm8.22-44.62l3.79,12.46,3.96-12.46h6.25l4,12.52,3.83-12.52h6.58l-6.78,19.63h-6.97l-3.83-11.74-3.77,11.74h-6.93l-6.8-19.63h6.66Zm15.44,67.63h-6.25v-10.66c0-1.16-.27-2.05-.82-2.68s-1.31-.94-2.29-.94c-.92,0-1.69,.32-2.29,.95-.6,.63-.9,1.55-.9,2.76v10.57h-6.25v-19.63h6v2.46c1.2-1.99,3.14-2.99,5.84-2.99,2.01,0,3.67,.66,4.98,1.98,1.32,1.32,1.97,3.09,1.97,5.3v12.87Zm24.02,0h-6.05v-2.13c-1.34,1.77-3.22,2.66-5.64,2.66-1.72,0-3.27-.46-4.67-1.38-1.39-.92-2.48-2.17-3.27-3.75-.79-1.58-1.18-3.33-1.18-5.24,0-2.9,.87-5.35,2.62-7.33,1.75-1.99,3.92-2.98,6.52-2.98,2.41,0,4.28,.89,5.62,2.66v-2.13h6.05v19.63Zm13.86-67.63v5.55h-5.51v14.08h-6.25v-14.08h-3.38v-5.55h3.38v-1.5c0-2.6,.67-4.62,2-6.04,1.33-1.43,3.16-2.14,5.48-2.14,2.57,0,4.77,.69,6.62,2.07l-2.71,4.63c-1.09-.57-2.12-.86-3.07-.86-1.38,0-2.07,.83-2.07,2.48v1.37h5.51Zm9.75,19.63h-6.25v-19.63h6.25v19.63Zm-.5-23.01c-.72,.72-1.61,1.07-2.67,1.07s-1.96-.36-2.67-1.07c-.71-.72-1.06-1.6-1.06-2.66s.36-1.96,1.06-2.68c.71-.72,1.6-1.07,2.67-1.07s1.94,.36,2.67,1.07c.72,.72,1.08,1.61,1.08,2.68s-.36,1.94-1.08,2.66Zm17.84,9.39c-1.08-.35-2.13-.53-3.14-.53-2.38,0-3.57,1.18-3.57,3.54v10.61h-6.25v-19.63h6v2.27c1.12-1.86,2.9-2.79,5.35-2.79,.77,0,1.5,.1,2.21,.29l-.59,6.25Zm34.79,13.61h-6.25v-10.66c0-1.16-.27-2.05-.82-2.68s-1.32-.94-2.3-.94c-.91,0-1.67,.32-2.28,.95-.61,.63-.91,1.55-.91,2.76v10.57h-6.25v-10.66c0-1.16-.27-2.05-.82-2.68s-1.31-.94-2.29-.94c-.92,0-1.69,.32-2.29,.95-.6,.63-.9,1.55-.9,2.76v10.57h-6.25v-19.63h6v2.46c1.2-1.99,3.14-2.99,5.84-2.99,1.3,0,2.48,.29,3.53,.86,1.05,.57,1.87,1.38,2.45,2.42,1.28-2.19,3.35-3.28,6.21-3.28,2.24,0,4.02,.65,5.34,1.95,1.32,1.3,1.98,3.08,1.98,5.33v12.87Z"/>
</svg>