<?xml version="1.0" encoding="UTF-8"?>
<svg id="Layer_2" data-name="Layer 2" xmlns="http://www.w3.org/2000/svg" viewBox="0 0 1000 600">
  <defs>
    <style>
      .cls-1 {
        fill: #fff;
      }
    </style>
  </defs>
  <g id="Layer_2-2" data-name="Layer 2">
    <g>
      <path class="cls-1" d="M606.67,307.84c-1.87,0-3.06,.99-3.56,2.98h7.08c-.52-1.99-1.69-2.98-3.52-2.98Z"/>
      <path class="cls-1" d="M547.65,269.74c1.21,0,2.21-.42,2.99-1.27,.78-.84,1.17-1.91,1.17-3.2s-.39-2.35-1.17-3.19c-.78-.84-1.78-1.26-2.99-1.26s-2.22,.42-2.99,1.27c-.77,.85-1.15,1.91-1.15,3.18s.38,2.36,1.15,3.2c.77,.84,1.76,1.27,2.99,1.27Z"/>
      <path class="cls-1" d="M458.25,308.36c-1.23,0-2.22,.42-2.99,1.27-.77,.84-1.15,1.91-1.15,3.18s.38,2.36,1.15,3.2c.77,.84,1.76,1.27,2.99,1.27s2.21-.42,2.99-1.27,1.17-1.91,1.17-3.2-.39-2.35-1.17-3.19c-.78-.84-1.78-1.26-2.99-1.26Z"/>
      <path class="cls-1" d="M481.6,307.84c-1.87,0-3.06,.99-3.56,2.98h7.08c-.52-1.99-1.69-2.98-3.52-2.98Z"/>
      <path class="cls-1" d="M406.99,307.84c-1.87,0-3.06,.99-3.56,2.98h7.08c-.52-1.99-1.69-2.98-3.52-2.98Z"/>
      <path class="cls-1" d="M574.18,307.84c-1.87,0-3.06,.99-3.56,2.98h7.08c-.52-1.99-1.69-2.98-3.52-2.98Z"/>
      <path class="cls-1" d="M480.02,268.47c.78-.84,1.17-1.91,1.17-3.2s-.39-2.35-1.17-3.19c-.78-.84-1.78-1.26-2.99-1.26s-2.22,.42-2.99,1.27c-.77,.85-1.15,1.91-1.15,3.18s.38,2.36,1.15,3.2c.77,.84,1.76,1.27,2.99,1.27s2.21-.42,2.99-1.27Z"/>
      <path class="cls-1" d="M270.25,252.91c-1.62,0-2.95,.72-3.98,2.16-1.03,1.44-1.55,3.46-1.55,6.06s.52,4.63,1.55,6.06c1.03,1.44,2.36,2.16,3.98,2.16s2.96-.72,3.99-2.16,1.56-3.46,1.56-6.06-.52-4.63-1.56-6.06-2.37-2.16-3.99-2.16Z"/>
      <path class="cls-1" d="M512.45,307.84c-1.87,0-3.06,.99-3.56,2.98h7.08c-.52-1.99-1.69-2.98-3.52-2.98Z"/>
      <path class="cls-1" d="M503.91,262.08c-.78-.84-1.78-1.26-2.99-1.26s-2.22,.42-2.99,1.27c-.77,.85-1.15,1.91-1.15,3.18s.38,2.36,1.15,3.2c.77,.84,1.76,1.27,2.99,1.27s2.21-.42,2.99-1.27c.78-.84,1.17-1.91,1.17-3.2s-.39-2.35-1.17-3.19Z"/>
      <path class="cls-1" d="M623.83,269.74c1.22,0,2.23-.42,3.03-1.26,.79-.84,1.19-1.91,1.19-3.21s-.4-2.37-1.19-3.2c-.79-.83-1.8-1.25-3.03-1.25s-2.21,.42-3.01,1.25c-.79,.83-1.19,1.9-1.19,3.2s.4,2.37,1.19,3.21c.79,.84,1.8,1.26,3.01,1.26Z"/>
      <path class="cls-1" d="M574.59,268.48c.79-.84,1.19-1.91,1.19-3.21s-.4-2.37-1.19-3.2c-.79-.83-1.8-1.25-3.03-1.25s-2.21,.42-3.01,1.25c-.79,.83-1.19,1.9-1.19,3.2s.4,2.37,1.19,3.21c.79,.84,1.8,1.26,3.01,1.26s2.23-.42,3.03-1.26Z"/>
      <path class="cls-1" d="M242.51,252.91c-1.62,0-2.95,.72-3.98,2.16-1.03,1.44-1.55,3.46-1.55,6.06s.52,4.63,1.55,6.06c1.03,1.44,2.36,2.16,3.98,2.16s2.96-.72,3.99-2.16,1.56-3.46,1.56-6.06-.52-4.63-1.56-6.06-2.37-2.16-3.99-2.16Z"/>
      <path class="cls-1" d="M326.85,307.84c-1.87,0-3.06,.99-3.56,2.98h7.08c-.52-1.99-1.69-2.98-3.52-2.98Z"/>
      <path class="cls-1" d="M351.41,260.82c-1.21,0-2.21,.42-3.01,1.25-.79,.83-1.19,1.9-1.19,3.2s.4,2.37,1.19,3.21c.79,.84,1.8,1.26,3.01,1.26s2.23-.42,3.03-1.26c.79-.84,1.19-1.91,1.19-3.21s-.4-2.37-1.19-3.2c-.79-.83-1.8-1.25-3.03-1.25Z"/>
      <path class="cls-1" d="M711.63,260.82c-1.21,0-2.21,.42-3.01,1.25-.79,.83-1.19,1.9-1.19,3.2s.4,2.37,1.19,3.21c.79,.84,1.8,1.26,3.01,1.26s2.23-.42,3.03-1.26c.79-.84,1.19-1.91,1.19-3.21s-.4-2.37-1.19-3.2c-.79-.83-1.8-1.25-3.03-1.25Z"/>
      <path class="cls-1" d="M757.28,260.3c-1.87,0-3.06,.99-3.56,2.98h7.08c-.52-1.99-1.69-2.98-3.52-2.98Z"/>
      <path class="cls-1" d="M0,0V600H1000V0H0ZM637.72,246.47h6.19v28.53h-6.19v-28.53Zm-21.43,11.48c2-1.94,4.51-2.91,7.54-2.91s5.55,.97,7.55,2.91c2,1.94,3.01,4.38,3.01,7.32s-1,5.38-3.01,7.33c-2.01,1.95-4.52,2.92-7.55,2.92s-5.54-.97-7.54-2.92-3-4.39-3-7.33,1-5.38,3-7.32Zm-11.99,10.43c-.45-.2-1.25-.38-2.4-.55l-1.14-.15c-2.33-.35-4.06-1.02-5.17-2.01s-1.67-2.36-1.67-4.1c0-2.06,.74-3.66,2.21-4.8,1.48-1.13,3.54-1.7,6.18-1.7,1.55,0,2.92,.12,4.12,.37s2.61,.68,4.24,1.3l-1.72,4.84c-1.02-.43-2.1-.78-3.25-1.06-1.15-.28-2.19-.43-3.13-.44-1.51,0-2.26,.39-2.26,1.18,0,.37,.24,.65,.72,.82,.48,.17,1.28,.35,2.42,.51l1.41,.21c2.09,.32,3.67,.98,4.75,1.97,1.08,.99,1.62,2.3,1.62,3.93,0,2.13-.79,3.8-2.38,5.01-1.59,1.21-3.79,1.82-6.62,1.82-3.88,0-6.87-.68-8.98-2.05l2.17-4.8c2.08,1.23,4.36,1.84,6.85,1.84,1.82,0,2.73-.43,2.73-1.28,0-.36-.23-.64-.68-.84Zm-64.57-10.39c1.73-1.97,3.88-2.95,6.46-2.95,2.27,0,4.06,.8,5.38,2.4v-10.97h6.17v28.53h-5.98v-2.11c-1.33,1.75-3.19,2.63-5.59,2.63-1.7,0-3.24-.45-4.62-1.36s-2.46-2.15-3.24-3.71c-.78-1.57-1.17-3.3-1.17-5.19,0-2.88,.86-5.3,2.59-7.26Zm-24.37-2.43h5.94v2.44c1.19-1.97,3.11-2.96,5.78-2.96,1.99,0,3.63,.65,4.93,1.96,1.3,1.31,1.95,3.06,1.95,5.25v12.75h-6.19v-10.56c0-1.15-.27-2.03-.81-2.65-.54-.62-1.3-.93-2.26-.93-.92,0-1.67,.31-2.26,.94-.59,.63-.89,1.54-.89,2.74v10.46h-6.19v-19.44Zm-140.36,12.82c-.45-.2-1.25-.38-2.4-.55l-1.14-.15c-2.33-.35-4.06-1.02-5.17-2.01-1.12-.99-1.67-2.36-1.67-4.1,0-2.06,.74-3.66,2.21-4.8,1.48-1.13,3.54-1.7,6.18-1.7,1.55,0,2.92,.12,4.12,.37,1.2,.25,2.61,.68,4.24,1.3l-1.72,4.84c-1.02-.43-2.1-.78-3.25-1.06-1.15-.28-2.19-.43-3.13-.44-1.51,0-2.26,.39-2.26,1.18,0,.37,.24,.65,.72,.82,.48,.17,1.28,.35,2.42,.51l1.41,.21c2.09,.32,3.67,.98,4.75,1.97,1.08,.99,1.62,2.3,1.62,3.93,0,2.13-.79,3.8-2.38,5.01-1.59,1.21-3.79,1.82-6.62,1.82-3.88,0-6.87-.68-8.98-2.05l2.17-4.8c2.08,1.23,4.36,1.84,6.85,1.84,1.82,0,2.73-.43,2.73-1.28,0-.36-.23-.64-.68-.84Zm-49.04-21.64c.81,0,1.56,.12,2.23,.36,.68,.24,1.24,.47,1.7,.71,.46,.23,.82,.35,1.09,.35,.66,0,1.42-.45,2.28-1.35l3.39,3.29c-1.39,2-3.29,3-5.69,3-.8,0-1.54-.12-2.21-.36-.68-.24-1.24-.47-1.7-.71-.46-.23-.83-.35-1.11-.35-.66,0-1.42,.44-2.28,1.33l-3.39-3.27c1.41-2,3.3-3,5.69-3Zm-99.99,28.26h-6.4v-19.31l-6.21,2.34v-6.31l12.61-4.89v28.16Zm27.81-7.85c-.64,1.82-1.51,3.33-2.6,4.55s-2.39,2.15-3.88,2.81c-1.49,.66-3.09,1-4.79,1s-3.3-.33-4.78-1-2.78-1.6-3.88-2.81c-1.1-1.21-1.97-2.73-2.6-4.55s-.95-3.82-.95-6.02c0-1.77,.21-3.41,.62-4.94,.41-1.53,.99-2.86,1.73-4s1.62-2.12,2.63-2.94c1.01-.82,2.13-1.43,3.36-1.85,1.23-.41,2.51-.62,3.87-.62,1.7,0,3.29,.33,4.78,.99,1.48,.66,2.78,1.59,3.89,2.8,1.11,1.21,1.98,2.73,2.61,4.55,.63,1.82,.95,3.82,.95,6.02s-.32,4.2-.96,6.02Zm27.74,0c-.64,1.82-1.51,3.33-2.6,4.55s-2.39,2.15-3.88,2.81c-1.49,.66-3.09,1-4.79,1s-3.3-.33-4.78-1-2.78-1.6-3.88-2.81c-1.1-1.21-1.97-2.73-2.6-4.55s-.95-3.82-.95-6.02c0-1.77,.21-3.41,.62-4.94,.41-1.53,.99-2.86,1.73-4s1.62-2.12,2.63-2.94c1.01-.82,2.13-1.43,3.36-1.85,1.23-.41,2.51-.62,3.87-.62,1.7,0,3.29,.33,4.78,.99,1.48,.66,2.78,1.59,3.89,2.8,1.11,1.21,1.98,2.73,2.61,4.55,.63,1.82,.95,3.82,.95,6.02s-.32,4.2-.96,6.02Zm32.06,55.39h-6.19v-28.53h6.19v28.53Zm1.18-47.54h-6v-2.11c-1.33,1.75-3.19,2.63-5.59,2.63-1.7,0-3.24-.45-4.62-1.36-1.38-.91-2.46-2.15-3.24-3.71-.78-1.57-1.17-3.3-1.17-5.19,0-2.88,.86-5.3,2.59-7.26,1.73-1.97,3.88-2.95,6.46-2.95,2.39,0,4.24,.88,5.57,2.63v-2.11h6v19.44Zm21.68,39.74h-13.17c.5,2.06,1.89,3.1,4.16,3.1,1.57,0,2.98-.57,4.24-1.7l4,3.73c-2.13,2.13-4.98,3.19-8.55,3.19-3.06,0-5.53-.94-7.42-2.8-1.89-1.87-2.83-4.31-2.83-7.33s.92-5.54,2.77-7.47,4.24-2.88,7.2-2.88,5.21,.94,7.01,2.83c1.8,1.89,2.71,4.36,2.72,7.4,0,.86-.04,1.51-.12,1.93Zm1.26-39.74h-6.19v-10.56c0-1.15-.27-2.03-.81-2.65-.54-.62-1.3-.93-2.26-.93-.92,0-1.67,.31-2.26,.94-.59,.63-.89,1.54-.89,2.74v10.46h-6.19v-19.44h5.94v2.44c1.19-1.97,3.11-2.96,5.78-2.96,1.99,0,3.63,.65,4.93,1.96,1.3,1.31,1.95,3.06,1.95,5.25v12.75Zm21.59,45.68c0,3.16-.95,5.64-2.86,7.46-1.91,1.81-4.47,2.72-7.68,2.72-1.66,0-3.27-.21-4.83-.64-1.55-.43-2.9-1.04-4.03-1.84l2.19-4.93c1.86,1.33,3.94,1.99,6.25,1.99,1.37,0,2.52-.38,3.47-1.15,.95-.77,1.42-1.88,1.42-3.34v-1.2c-1.28,1.64-3.06,2.46-5.36,2.46-1.7,0-3.24-.43-4.62-1.3s-2.46-2.04-3.23-3.54c-.77-1.5-1.16-3.15-1.16-4.97,0-2.77,.86-5.1,2.57-6.99,1.71-1.89,3.86-2.83,6.44-2.83,2.33,0,4.15,.85,5.44,2.55v-2.03h6v17.58Zm-.32-48.08c-2.01,1.95-4.52,2.92-7.55,2.92s-5.55-.97-7.54-2.92c-2-1.95-3-4.39-3-7.33s1-5.38,3-7.32c2-1.94,4.51-2.91,7.54-2.91s5.55,.97,7.55,2.91c2,1.94,3.01,4.38,3.01,7.32s-1,5.38-3.01,7.33Zm24.23,49.94h-6v-2.11c-1.33,1.75-3.19,2.63-5.59,2.63-1.7,0-3.24-.46-4.62-1.36-1.38-.91-2.46-2.15-3.24-3.71s-1.17-3.3-1.17-5.19c0-2.88,.86-5.3,2.59-7.26,1.73-1.97,3.88-2.95,6.46-2.95,2.39,0,4.24,.88,5.57,2.63v-2.11h6v19.44Zm10.52,0h-6.19v-28.53h6.19v28.53Zm.33-76.07h6.17v10.97c1.32-1.6,3.11-2.4,5.38-2.4,1.7,0,3.25,.45,4.63,1.35,1.39,.9,2.47,2.13,3.25,3.69,.78,1.56,1.17,3.28,1.17,5.17s-.39,3.63-1.17,5.19c-.78,1.57-1.86,2.81-3.25,3.71s-2.93,1.36-4.63,1.36c-2.39,0-4.24-.87-5.57-2.61v2.09h-5.98v-28.53Zm22.54,68.27h-13.17c.5,2.06,1.89,3.1,4.16,3.1,1.57,0,2.98-.57,4.24-1.7l4,3.73c-2.13,2.13-4.98,3.19-8.55,3.19-3.06,0-5.53-.94-7.42-2.8-1.89-1.87-2.83-4.31-2.83-7.33s.92-5.54,2.77-7.47,4.24-2.88,7.2-2.88,5.21,.94,7.01,2.83c1.8,1.89,2.71,4.36,2.72,7.4,0,.86-.04,1.51-.12,1.93Zm1.37-59.18h5.94v2.24c1.11-1.84,2.88-2.77,5.3-2.77,.76,0,1.49,.1,2.19,.29l-.58,6.19c-1.07-.35-2.11-.52-3.11-.52-2.36,0-3.54,1.17-3.54,3.5v10.5h-6.19v-19.44Zm16.29,65.66c-1.59,1.21-3.79,1.82-6.62,1.82-3.88,0-6.87-.68-8.98-2.05l2.17-4.8c2.08,1.22,4.36,1.84,6.85,1.84,1.82,0,2.73-.43,2.73-1.28,0-.36-.23-.64-.68-.84-.45-.2-1.25-.38-2.4-.55l-1.14-.15c-2.33-.35-4.06-1.02-5.17-2.01-1.12-.99-1.67-2.36-1.67-4.1,0-2.06,.74-3.66,2.21-4.8,1.48-1.13,3.54-1.7,6.18-1.7,1.55,0,2.92,.12,4.12,.37,1.2,.25,2.61,.68,4.24,1.3l-1.72,4.84c-1.02-.43-2.1-.78-3.25-1.06-1.15-.28-2.19-.43-3.13-.44-1.51,0-2.26,.39-2.26,1.18,0,.37,.24,.65,.72,.82s1.28,.34,2.42,.51l1.41,.21c2.09,.32,3.67,.98,4.75,1.97,1.08,.99,1.62,2.3,1.62,3.93,0,2.13-.79,3.8-2.38,5.01Zm6.15-46.22h-6.19v-19.44h6.19v19.44Zm-.49-22.79c-.72,.71-1.6,1.06-2.64,1.06s-1.94-.35-2.64-1.06c-.7-.71-1.05-1.59-1.05-2.63s.35-1.94,1.05-2.65c.7-.71,1.58-1.06,2.64-1.06s1.92,.35,2.64,1.06c.72,.71,1.07,1.59,1.07,2.65s-.36,1.92-1.07,2.63Zm4.83,3.35h5.94v2.44c1.19-1.97,3.11-2.96,5.78-2.96,1.99,0,3.63,.65,4.93,1.96,1.3,1.31,1.95,3.06,1.95,5.25v12.75h-6.19v-10.56c0-1.15-.27-2.03-.81-2.65-.54-.62-1.3-.93-2.26-.93-.92,0-1.67,.31-2.26,.94-.59,.63-.89,1.54-.89,2.74v10.46h-6.19v-19.44Zm23.6,66.98h-5.98v-2.11c-1.33,1.75-3.19,2.63-5.59,2.63-1.7,0-3.24-.46-4.62-1.36-1.38-.91-2.46-2.15-3.24-3.71s-1.17-3.3-1.17-5.19c0-2.88,.86-5.3,2.59-7.26,1.73-1.97,3.88-2.95,6.46-2.95,2.27,0,4.06,.8,5.38,2.4v-10.97h6.17v28.53Zm-.65-52.09c-.78-1.57-1.17-3.3-1.17-5.19,0-2.88,.86-5.3,2.59-7.26,1.73-1.97,3.88-2.95,6.46-2.95,2.27,0,4.06,.8,5.38,2.4v-10.97h6.17v28.53h-5.98v-2.11c-1.33,1.75-3.19,2.63-5.59,2.63-1.7,0-3.24-.45-4.62-1.36s-2.46-2.15-3.24-3.71Zm23.51,44.3h-13.17c.5,2.06,1.89,3.1,4.16,3.1,1.57,0,2.99-.57,4.24-1.7l4,3.73c-2.13,2.13-4.98,3.19-8.55,3.19-3.06,0-5.53-.94-7.42-2.8-1.89-1.87-2.83-4.31-2.83-7.33s.92-5.54,2.77-7.47,4.24-2.88,7.2-2.88,5.21,.94,7.01,2.83c1.8,1.89,2.71,4.36,2.72,7.4,0,.86-.04,1.51-.12,1.93Zm3.62-40.58c-1.38-.91-2.46-2.15-3.24-3.71-.78-1.57-1.17-3.3-1.17-5.19,0-2.88,.86-5.3,2.59-7.26,1.73-1.97,3.88-2.95,6.46-2.95,2.39,0,4.24,.88,5.57,2.63v-2.11h6v19.44h-6v-2.11c-1.33,1.75-3.19,2.63-5.59,2.63-1.7,0-3.24-.45-4.62-1.36Zm27.24,40.58h-13.17c.5,2.06,1.89,3.1,4.16,3.1,1.57,0,2.99-.57,4.24-1.7l4,3.73c-2.13,2.13-4.98,3.19-8.55,3.19-3.06,0-5.53-.94-7.42-2.8-1.89-1.87-2.83-4.31-2.83-7.33s.92-5.54,2.77-7.47,4.24-2.88,7.2-2.88,5.21,.94,7.01,2.83c1.8,1.89,2.71,4.36,2.72,7.4,0,.86-.04,1.51-.12,1.93Zm14.78,7.8l-3.81-5.59-3.71,5.59h-7.12l6.91-9.81-6.69-9.63h7.25l3.6,5.53,3.56-5.53h7.14l-6.75,9.63,6.85,9.81h-7.22Zm22.48-.58c-1.42,.74-3.01,1.1-4.78,1.1-3.1,0-5.62-.96-7.56-2.89-1.95-1.93-2.92-4.38-2.92-7.36s.97-5.43,2.92-7.35c1.95-1.92,4.47-2.88,7.56-2.88,1.77,0,3.35,.37,4.76,1.11,1.41,.74,2.59,1.79,3.54,3.14l-4.86,3.39c-.95-1.24-2.15-1.86-3.58-1.86-1.12,0-2.07,.4-2.84,1.21-.77,.81-1.16,1.89-1.16,3.24s.38,2.45,1.14,3.26,1.7,1.21,2.82,1.21c1.43,0,2.65-.63,3.66-1.9l4.84,3.46c-.94,1.34-2.12,2.38-3.54,3.11Zm1.72-56.69c0-2.94,1-5.38,3-7.32s4.51-2.91,7.54-2.91,5.55,.97,7.55,2.91c2,1.94,3.01,4.38,3.01,7.32s-1,5.38-3.01,7.33c-2.01,1.95-4.52,2.92-7.55,2.92s-5.54-.97-7.54-2.92-3-4.39-3-7.33Zm22.75,49.47h-13.17c.5,2.06,1.89,3.1,4.16,3.1,1.57,0,2.99-.57,4.24-1.7l4,3.73c-2.13,2.13-4.98,3.19-8.55,3.19-3.06,0-5.53-.94-7.42-2.8-1.89-1.87-2.83-4.31-2.83-7.33s.92-5.54,2.77-7.47,4.24-2.88,7.2-2.88,5.21,.94,7.01,2.83c1.8,1.89,2.71,4.36,2.72,7.4,0,.86-.04,1.51-.12,1.93Zm9.63,7.8h-6.19v-28.53h6.19v28.53Zm22.86-7.8h-13.17c.5,2.06,1.89,3.1,4.16,3.1,1.57,0,2.99-.57,4.24-1.7l4,3.73c-2.13,2.13-4.98,3.19-8.55,3.19-3.06,0-5.53-.94-7.42-2.8-1.89-1.87-2.83-4.31-2.83-7.33s.92-5.54,2.77-7.47,4.24-2.88,7.2-2.88,5.21,.94,7.01,2.83c1.8,1.89,2.71,4.36,2.72,7.4,0,.86-.04,1.51-.12,1.93Zm22.05,7.8h-6.19v-10.56c0-1.15-.27-2.03-.81-2.65s-1.3-.93-2.26-.93c-.92,0-1.67,.31-2.26,.94-.59,.62-.89,1.54-.89,2.74v10.46h-6.19v-19.44h5.94v2.44c1.19-1.97,3.11-2.96,5.78-2.96,1.99,0,3.63,.65,4.93,1.96,1.3,1.31,1.95,3.06,1.95,5.25v12.75Zm18.43-.58c-1.42,.74-3.01,1.1-4.78,1.1-3.1,0-5.62-.96-7.56-2.89-1.95-1.93-2.92-4.38-2.92-7.36s.97-5.43,2.92-7.35c1.95-1.92,4.47-2.88,7.56-2.88,1.77,0,3.35,.37,4.76,1.11,1.41,.74,2.59,1.79,3.54,3.14l-4.86,3.39c-.95-1.24-2.15-1.86-3.58-1.86-1.12,0-2.07,.4-2.84,1.21-.77,.81-1.16,1.89-1.16,3.24s.38,2.45,1.14,3.26,1.7,1.21,2.82,1.21c1.43,0,2.65-.63,3.66-1.9l4.84,3.46c-.94,1.34-2.12,2.38-3.54,3.11Zm.74-46.44c-1.33,0-2.55-.18-3.67-.54s-2.11-.89-2.97-1.6c-.86-.7-1.54-1.63-2.03-2.78-.49-1.15-.74-2.46-.74-3.95v-11.1h6.21v10.56c0,1.2,.29,2.1,.87,2.71,.58,.61,1.35,.91,2.32,.91s1.74-.31,2.32-.92c.58-.61,.87-1.51,.87-2.7v-10.56h6.17v11.12c0,1.47-.24,2.78-.73,3.93-.48,1.15-1.16,2.07-2.02,2.78-.86,.7-1.85,1.23-2.97,1.6s-2.33,.54-3.65,.54Zm11.78,47.02h-6.19v-19.44h6.19v19.44Zm-.49-22.79c-.72,.71-1.6,1.06-2.64,1.06s-1.94-.35-2.64-1.06c-.7-.71-1.05-1.59-1.05-2.63s.35-1.94,1.05-2.65c.7-.71,1.58-1.06,2.64-1.06s1.92,.35,2.64,1.06c.72,.71,1.07,1.59,1.07,2.65s-.36,1.92-1.07,2.63Zm4.17-41.83c1.95-1.92,4.47-2.88,7.56-2.88,1.77,0,3.35,.37,4.76,1.11,1.41,.74,2.59,1.79,3.54,3.14l-4.86,3.39c-.95-1.24-2.15-1.86-3.58-1.86-1.12,0-2.07,.4-2.84,1.21-.77,.81-1.16,1.89-1.16,3.24s.38,2.45,1.14,3.26c.76,.81,1.7,1.21,2.82,1.21,1.43,0,2.65-.63,3.66-1.9l4.84,3.46c-.94,1.34-2.12,2.38-3.54,3.11-1.42,.73-3.01,1.1-4.78,1.1-3.1,0-5.62-.96-7.56-2.89-1.95-1.93-2.92-4.38-2.92-7.36s.97-5.43,2.92-7.35Zm20.23,64.62h-6v-2.11c-1.33,1.75-3.19,2.63-5.59,2.63-1.7,0-3.24-.46-4.62-1.36-1.38-.91-2.46-2.15-3.24-3.71s-1.17-3.3-1.17-5.19c0-2.88,.86-5.3,2.59-7.26,1.73-1.97,3.88-2.95,6.46-2.95,2.39,0,4.24,.88,5.57,2.63v-2.11h6v19.44Zm4.62-47.54h-6.19v-19.44h6.19v19.44Zm-.49-22.79c-.72,.71-1.6,1.06-2.64,1.06s-1.94-.35-2.64-1.06c-.7-.71-1.05-1.59-1.05-2.63s.35-1.94,1.05-2.65c.7-.71,1.58-1.06,2.64-1.06s1.92,.35,2.64,1.06c.72,.71,1.07,1.59,1.07,2.65s-.36,1.92-1.07,2.63Zm21.88,20.39c-2.01,1.95-4.52,2.92-7.55,2.92s-5.54-.97-7.54-2.92-3-4.39-3-7.33,1-5.38,3-7.32,4.51-2.91,7.54-2.91,5.55,.97,7.55,2.91c2,1.94,3.01,4.38,3.01,7.32s-1,5.38-3.01,7.33Zm24.94,2.4h-6.19v-10.56c0-1.15-.27-2.03-.81-2.65-.54-.62-1.3-.93-2.26-.93-.92,0-1.67,.31-2.26,.94-.59,.63-.89,1.54-.89,2.74v10.46h-6.19v-19.44h5.94v2.44c1.19-1.97,3.11-2.96,5.78-2.96,1.99,0,3.63,.65,4.93,1.96,1.3,1.31,1.95,3.06,1.95,5.25v12.75Zm22.75-7.8h-13.17c.5,2.06,1.89,3.09,4.16,3.09,1.57,0,2.99-.57,4.24-1.7l4,3.73c-2.13,2.13-4.98,3.19-8.55,3.19-3.06,0-5.53-.94-7.42-2.81-1.89-1.87-2.83-4.31-2.83-7.33s.92-5.54,2.77-7.47c1.84-1.92,4.24-2.88,7.2-2.88s5.21,.94,7.01,2.83c1.8,1.89,2.71,4.36,2.72,7.4,0,.86-.04,1.51-.12,1.93Zm17.66,6.48c-1.59,1.21-3.79,1.82-6.62,1.82-3.88,0-6.87-.68-8.98-2.05l2.17-4.8c2.08,1.23,4.36,1.84,6.85,1.84,1.82,0,2.73-.43,2.73-1.28,0-.36-.23-.64-.68-.84-.45-.2-1.25-.38-2.4-.55l-1.14-.15c-2.33-.35-4.06-1.02-5.17-2.01s-1.67-2.36-1.67-4.1c0-2.06,.74-3.66,2.21-4.8,1.48-1.13,3.54-1.7,6.18-1.7,1.55,0,2.92,.12,4.12,.37s2.61,.68,4.24,1.3l-1.72,4.84c-1.02-.43-2.1-.78-3.25-1.06-1.15-.28-2.19-.43-3.13-.44-1.51,0-2.26,.39-2.26,1.18,0,.37,.24,.65,.72,.82,.48,.17,1.28,.35,2.42,.51l1.41,.21c2.09,.32,3.67,.98,4.75,1.97,1.08,.99,1.62,2.3,1.62,3.93,0,2.13-.79,3.8-2.38,5.01Z"/>
      <path class="cls-1" d="M349.32,308.25c-1.2,0-2.18,.39-2.94,1.18-.76,.79-1.14,1.78-1.14,2.98s.38,2.18,1.14,2.97c.76,.79,1.74,1.19,2.94,1.19s2.11-.39,2.85-1.17,1.11-1.78,1.11-2.99-.37-2.21-1.11-2.99c-.74-.78-1.69-1.17-2.85-1.17Z"/>
      <path class="cls-1" d="M373.1,308.36c-1.23,0-2.22,.42-2.99,1.27-.77,.84-1.15,1.91-1.15,3.18s.38,2.36,1.15,3.2c.77,.84,1.76,1.27,2.99,1.27s2.21-.42,2.99-1.27,1.17-1.91,1.17-3.2-.39-2.35-1.17-3.19c-.78-.84-1.78-1.26-2.99-1.26Z"/>
      <path class="cls-1" d="M683.08,308.36c-1.23,0-2.22,.42-2.99,1.27-.77,.84-1.15,1.91-1.15,3.18s.38,2.36,1.15,3.2c.77,.84,1.76,1.27,2.99,1.27s2.21-.42,2.99-1.27c.78-.84,1.17-1.91,1.17-3.2s-.39-2.35-1.17-3.19c-.78-.84-1.78-1.26-2.99-1.26Z"/>
      <path class="cls-1" d="M304.66,260.82c-1.23,0-2.22,.42-2.99,1.27-.77,.85-1.15,1.91-1.15,3.18s.38,2.36,1.15,3.2c.77,.84,1.76,1.27,2.99,1.27s2.21-.42,2.99-1.27,1.17-1.91,1.17-3.2-.39-2.35-1.17-3.19-1.78-1.26-2.99-1.26Z"/>
      <path class="cls-1" d="M404.11,269.74c1.24,0,2.24-.42,3.01-1.27,.77-.84,1.15-1.91,1.15-3.2s-.38-2.34-1.15-3.18c-.77-.84-1.77-1.27-3.01-1.27s-2.21,.42-2.98,1.26-1.16,1.9-1.16,3.19,.39,2.36,1.16,3.2,1.77,1.27,2.98,1.27Z"/>
    </g>
  </g>
</svg>