<?xml version="1.0" encoding="UTF-8"?>
<svg id="Layer_2" data-name="Layer 2" xmlns="http://www.w3.org/2000/svg" viewBox="0 0 1000 1320">
  <defs>
    <style>
      .cls-1 {
        fill: #fff;
      }
    </style>
  </defs>
  <polygon class="cls-1" points="445.75 671.51 452.55 671.51 449.15 662.06 445.75 671.51"/>
  <path class="cls-1" d="M609.78,628.83c.79-.85,1.18-1.93,1.18-3.23s-.39-2.38-1.18-3.22c-.79-.85-1.79-1.27-3.02-1.27s-2.24,.43-3.02,1.28c-.77,.85-1.16,1.92-1.16,3.21s.39,2.38,1.16,3.23c.77,.85,1.78,1.28,3.02,1.28s2.23-.43,3.02-1.28Z"/>
  <path class="cls-1" d="M455.06,620.58c-1.89,0-3.09,1-3.59,3.01h7.15c-.52-2-1.71-3.01-3.55-3.01Z"/>
  <path class="cls-1" d="M491.79,668.99c-1.21,0-2.2,.4-2.97,1.19-.77,.79-1.15,1.8-1.15,3.01s.38,2.2,1.15,3c.77,.8,1.76,1.2,2.97,1.2s2.13-.39,2.88-1.18c.75-.79,1.12-1.79,1.12-3.02s-.37-2.23-1.12-3.02c-.75-.79-1.71-1.18-2.88-1.18Z"/>
  <path class="cls-1" d="M558.61,620.99c-1.21,0-2.2,.4-2.97,1.19-.77,.79-1.15,1.8-1.15,3.01s.38,2.2,1.15,3,1.76,1.2,2.97,1.2,2.13-.39,2.88-1.18c.75-.79,1.12-1.79,1.12-3.02s-.37-2.23-1.12-3.02c-.75-.79-1.71-1.18-2.88-1.18Z"/>
  <path class="cls-1" d="M538.12,628.84c.8-.85,1.2-1.93,1.2-3.24s-.4-2.39-1.2-3.23-1.82-1.26-3.06-1.26-2.24,.42-3.04,1.26-1.2,1.92-1.2,3.23,.4,2.4,1.2,3.24c.8,.85,1.81,1.27,3.04,1.27s2.26-.42,3.06-1.27Z"/>
  <path class="cls-1" d="M515.25,668.58c-1.89,0-3.09,1-3.59,3.01h7.15c-.52-2-1.71-3.01-3.55-3.01Z"/>
  <path class="cls-1" d="M489.78,628.83c.79-.85,1.18-1.93,1.18-3.23s-.39-2.38-1.18-3.22c-.79-.85-1.79-1.27-3.02-1.27s-2.24,.43-3.02,1.28c-.77,.85-1.16,1.92-1.16,3.21s.39,2.38,1.16,3.23c.77,.85,1.78,1.28,3.02,1.28s2.23-.43,3.02-1.28Z"/>
  <path class="cls-1" d="M511.49,630.11c1.25,0,2.26-.43,3.04-1.28,.77-.85,1.16-1.93,1.16-3.23s-.39-2.36-1.16-3.21c-.77-.85-1.79-1.28-3.04-1.28s-2.23,.42-3.01,1.27c-.78,.85-1.17,1.92-1.17,3.22s.39,2.38,1.17,3.23c.78,.85,1.78,1.28,3.01,1.28Z"/>
  <path class="cls-1" d="M582.62,630.11c1.22,0,2.23-.43,3.02-1.28,.79-.85,1.18-1.93,1.18-3.23s-.39-2.38-1.18-3.22c-.79-.85-1.79-1.27-3.02-1.27s-2.24,.43-3.02,1.28c-.77,.85-1.16,1.92-1.16,3.21s.39,2.38,1.16,3.23c.77,.85,1.78,1.28,3.02,1.28Z"/>
  <path class="cls-1" d="M285.61,621.11c-1.24,0-2.24,.43-3.02,1.28-.77,.85-1.16,1.92-1.16,3.21s.39,2.38,1.16,3.23c.77,.85,1.78,1.28,3.02,1.28s2.23-.43,3.02-1.28c.79-.85,1.18-1.93,1.18-3.23s-.39-2.38-1.18-3.22c-.79-.85-1.79-1.27-3.02-1.27Z"/>
  <path class="cls-1" d="M414.8,668.58c-1.89,0-3.09,1-3.59,3.01h7.15c-.52-2-1.71-3.01-3.55-3.01Z"/>
  <path class="cls-1" d="M434.5,622.38c-.79-.85-1.79-1.27-3.02-1.27s-2.24,.43-3.02,1.28c-.77,.85-1.16,1.92-1.16,3.21s.39,2.38,1.16,3.23c.77,.85,1.78,1.28,3.02,1.28s2.23-.43,3.02-1.28c.79-.85,1.18-1.93,1.18-3.23s-.39-2.38-1.18-3.22Z"/>
  <path class="cls-1" d="M401.4,622.38c-.79-.85-1.79-1.27-3.02-1.27s-2.24,.43-3.02,1.28c-.77,.85-1.16,1.92-1.16,3.21s.39,2.38,1.16,3.23c.77,.85,1.78,1.28,3.02,1.28s2.23-.43,3.02-1.28c.79-.85,1.18-1.93,1.18-3.23s-.39-2.38-1.18-3.22Z"/>
  <path class="cls-1" d="M391.22,669.11c-1.24,0-2.24,.43-3.02,1.28-.77,.85-1.16,1.92-1.16,3.21s.39,2.38,1.16,3.23c.77,.85,1.78,1.28,3.02,1.28s2.23-.43,3.02-1.28c.79-.85,1.18-1.93,1.18-3.23s-.39-2.38-1.18-3.22c-.79-.85-1.79-1.27-3.02-1.27Z"/>
  <path class="cls-1" d="M0,0V1320H1000V0H0ZM574.61,618.25c1.75-1.99,3.92-2.98,6.52-2.98,2.41,0,4.28,.89,5.62,2.66v-2.13h6.05v19.63h-6.05v-2.13c-1.34,1.77-3.22,2.66-5.64,2.66-1.72,0-3.27-.46-4.67-1.38s-2.48-2.17-3.27-3.75-1.18-3.33-1.18-5.24c0-2.9,.87-5.35,2.62-7.33Zm-73.28-11.63h6.23v11.07c1.33-1.61,3.14-2.42,5.43-2.42,1.72,0,3.28,.46,4.68,1.37,1.4,.91,2.49,2.16,3.28,3.73,.79,1.58,1.18,3.31,1.18,5.21s-.39,3.66-1.18,5.24-1.88,2.83-3.28,3.75-2.96,1.38-4.68,1.38c-2.41,0-4.28-.88-5.62-2.64v2.11h-6.04v-28.81Zm-228.12,28.81h-20.76v-28.01h6.68v21.82h14.08v6.19Zm22.6,0h-6.05v-2.13c-1.34,1.77-3.22,2.66-5.64,2.66-1.72,0-3.27-.46-4.67-1.38-1.39-.92-2.48-2.17-3.27-3.75-.79-1.58-1.18-3.33-1.18-5.24,0-2.9,.87-5.35,2.62-7.33,1.74-1.99,3.92-2.98,6.52-2.98,2.41,0,4.28,.89,5.62,2.66v-2.13h6.05v19.63Zm26.88-19.63v5.55h-5.51v14.08h-6.25v-14.08h-3.38v-5.55h3.38v-1.5c0-2.6,.67-4.62,2-6.04,1.33-1.43,3.16-2.14,5.48-2.14,2.56,0,4.77,.69,6.62,2.07l-2.71,4.63c-1.09-.57-2.12-.86-3.07-.86-1.38,0-2.07,.83-2.07,2.48v1.37h5.51Zm9.75,19.63h-6.25v-19.63h6.25v19.63Zm-.5-23.01c-.72,.72-1.61,1.07-2.67,1.07s-1.96-.36-2.67-1.07c-.71-.72-1.06-1.6-1.06-2.66s.35-1.96,1.06-2.68c.71-.72,1.6-1.07,2.67-1.07s1.94,.36,2.67,1.07c.72,.72,1.08,1.61,1.08,2.68s-.36,1.94-1.08,2.66Zm17.84,9.39c-1.08-.35-2.13-.53-3.14-.53-2.38,0-3.57,1.18-3.57,3.54v10.61h-6.25v-19.63h6v2.27c1.12-1.86,2.9-2.79,5.35-2.79,.77,0,1.5,.1,2.21,.29l-.59,6.25Zm27.71,.27c-.55-.62-1.32-.94-2.3-.94-.91,0-1.67,.32-2.28,.95-.61,.63-.91,1.55-.91,2.76v10.57h-6.25v-10.66c0-1.16-.27-2.05-.82-2.68s-1.31-.94-2.29-.94c-.92,0-1.69,.32-2.29,.95-.6,.63-.9,1.55-.9,2.76v10.57h-6.25v-19.63h6v2.46c1.2-1.99,3.14-2.99,5.84-2.99,1.3,0,2.48,.29,3.53,.86,1.05,.57,1.87,1.38,2.45,2.42,1.28-2.19,3.35-3.28,6.21-3.28,2.24,0,4.02,.65,5.34,1.95,1.32,1.3,1.98,3.08,1.98,5.33v12.87h-6.25v-10.66c0-1.16-.27-2.05-.82-2.68Zm23.92,61.34h-6.04v-2.13c-1.34,1.77-3.22,2.66-5.64,2.66-1.72,0-3.27-.46-4.67-1.38-1.39-.92-2.48-2.17-3.27-3.75-.79-1.58-1.18-3.33-1.18-5.24,0-2.9,.87-5.35,2.62-7.33,1.74-1.99,3.92-2.98,6.52-2.98,2.29,0,4.1,.81,5.43,2.42v-11.07h6.23v28.81Zm-4.52-47.47c-1.72,0-3.27-.46-4.67-1.38-1.39-.92-2.48-2.17-3.27-3.75-.79-1.58-1.18-3.33-1.18-5.24,0-2.9,.87-5.35,2.62-7.33,1.74-1.99,3.92-2.98,6.52-2.98,2.41,0,4.28,.89,5.62,2.66v-2.13h6.05v19.63h-6.05v-2.13c-1.34,1.77-3.22,2.66-5.64,2.66Zm27.61,39.6h-13.3c.51,2.08,1.91,3.12,4.2,3.12,1.59,0,3.01-.57,4.28-1.72l4.04,3.77c-2.15,2.15-5.03,3.22-8.63,3.22-3.09,0-5.58-.94-7.49-2.83-1.91-1.89-2.86-4.36-2.86-7.4s.93-5.6,2.79-7.54c1.86-1.94,4.28-2.91,7.27-2.91s5.26,.95,7.08,2.86,2.73,4.4,2.74,7.47c0,.87-.04,1.52-.12,1.95Zm.83-40.98c-1.39-.92-2.48-2.17-3.27-3.75-.79-1.58-1.18-3.33-1.18-5.24,0-2.9,.87-5.35,2.62-7.33,1.74-1.99,3.92-2.98,6.52-2.98,2.29,0,4.1,.81,5.43,2.42v-11.07h6.23v28.81h-6.04v-2.13c-1.34,1.77-3.22,2.66-5.64,2.66-1.72,0-3.27-.46-4.67-1.38Zm31.51,48.85l-2.11-5.88h-11.13l-2.11,5.88h-6.99l10.74-28.01h7.99l10.74,28.01h-7.13Zm7.92-55.87h-13.3c.51,2.08,1.91,3.12,4.2,3.12,1.59,0,3.01-.57,4.28-1.72l4.04,3.77c-2.15,2.15-5.03,3.22-8.63,3.22-3.09,0-5.58-.94-7.49-2.83-1.91-1.89-2.86-4.36-2.86-7.4s.93-5.6,2.79-7.54c1.86-1.94,4.28-2.91,7.27-2.91s5.26,.95,7.08,2.86c1.82,1.91,2.73,4.4,2.74,7.47,0,.87-.04,1.52-.12,1.95Zm14.6,42.26c-1.08-.35-2.13-.53-3.14-.53-2.38,0-3.57,1.18-3.57,3.54v10.61h-6.25v-19.63h6v2.27c1.12-1.86,2.9-2.79,5.35-2.79,.77,0,1.5,.1,2.21,.29l-.59,6.25Zm-2.03-38.99c-.79-1.58-1.18-3.33-1.18-5.24,0-2.9,.87-5.35,2.62-7.33,1.74-1.99,3.92-2.98,6.52-2.98,2.41,0,4.28,.89,5.62,2.66v-2.13h6.05v19.63h-6.05v-2.13c-1.34,1.77-3.22,2.66-5.64,2.66-1.72,0-3.27-.46-4.67-1.38-1.39-.92-2.48-2.17-3.27-3.75Zm24.53,50.72c0,3.19-.96,5.7-2.89,7.53-1.93,1.83-4.51,2.74-7.75,2.74-1.68,0-3.3-.21-4.87-.64-1.57-.43-2.93-1.05-4.07-1.86l2.21-4.98c1.88,1.34,3.98,2.01,6.31,2.01,1.38,0,2.55-.39,3.51-1.16s1.44-1.9,1.44-3.37v-1.21c-1.29,1.65-3.09,2.48-5.41,2.48-1.72,0-3.27-.44-4.67-1.31-1.39-.87-2.48-2.06-3.26-3.57s-1.17-3.18-1.17-5.02c0-2.8,.87-5.15,2.6-7.06,1.73-1.91,3.9-2.86,6.5-2.86,2.36,0,4.19,.86,5.49,2.58v-2.05h6.05v17.75Zm23.09-6h-13.3c.51,2.08,1.91,3.12,4.2,3.12,1.59,0,3.01-.57,4.28-1.72l4.04,3.77c-2.15,2.15-5.03,3.22-8.63,3.22-3.09,0-5.58-.94-7.49-2.83s-2.86-4.36-2.86-7.4,.93-5.6,2.79-7.54c1.86-1.94,4.28-2.91,7.27-2.91s5.26,.95,7.08,2.86,2.73,4.4,2.74,7.47c0,.87-.04,1.52-.12,1.95Zm-.52-49.95c0-2.97,1.01-5.43,3.03-7.39,2.02-1.96,4.56-2.94,7.62-2.94s5.6,.98,7.63,2.94c2.02,1.96,3.04,4.42,3.04,7.39s-1.01,5.44-3.04,7.4c-2.02,1.97-4.57,2.95-7.63,2.95s-5.6-.98-7.62-2.95c-2.02-1.97-3.03-4.43-3.03-7.4Zm22.78,57.82h-6.25v-10.66c0-1.16-.27-2.05-.82-2.68s-1.31-.94-2.29-.94c-.92,0-1.69,.32-2.29,.95s-.9,1.55-.9,2.76v10.57h-6.25v-19.63h6v2.46c1.2-1.99,3.14-2.99,5.84-2.99,2,0,3.67,.66,4.98,1.98,1.32,1.32,1.97,3.09,1.97,5.3v12.87Zm17.64-.03c-1.08,.37-2.36,.56-3.83,.56-2.55,0-4.46-.71-5.73-2.13s-1.9-3.4-1.9-5.94v-6.54h-3.65v-5.55h3.65v-5.7h6.27v5.7h6.7v5.55h-6.7v5.74c0,2.02,.92,3.03,2.77,3.03,.9,0,2.03-.41,3.4-1.23l2.17,4.88c-1.02,.72-2.06,1.26-3.14,1.63Zm3.84-49.85c0,3.19-.96,5.7-2.89,7.53-1.93,1.83-4.51,2.74-7.75,2.74-1.68,0-3.3-.21-4.87-.64s-2.93-1.05-4.07-1.86l2.21-4.98c1.88,1.34,3.98,2.01,6.31,2.01,1.38,0,2.55-.39,3.51-1.16,.96-.77,1.44-1.9,1.44-3.37v-1.21c-1.29,1.65-3.09,2.48-5.41,2.48-1.72,0-3.27-.44-4.67-1.31-1.39-.87-2.48-2.06-3.26-3.57-.78-1.51-1.17-3.18-1.17-5.02,0-2.8,.87-5.15,2.6-7.06,1.73-1.91,3.9-2.86,6.5-2.86,2.36,0,4.19,.86,5.49,2.58v-2.05h6.05v17.75Zm8.02,49.88h-6.25v-19.63h6.25v19.63Zm-.5-23.01c-.72,.72-1.61,1.07-2.67,1.07s-1.96-.36-2.67-1.07c-.71-.72-1.06-1.6-1.06-2.66s.35-1.96,1.06-2.68c.71-.72,1.6-1.07,2.67-1.07s1.94,.36,2.67,1.07c.72,.72,1.08,1.61,1.08,2.68s-.36,1.94-1.08,2.66Zm23.66,23.01h-6.25v-10.66c0-1.16-.27-2.05-.82-2.68s-1.31-.94-2.29-.94c-.92,0-1.69,.32-2.29,.95s-.9,1.55-.9,2.76v10.57h-6.25v-19.63h6v2.46c1.2-1.99,3.14-2.99,5.84-2.99,2,0,3.67,.66,4.98,1.98,1.32,1.32,1.97,3.09,1.97,5.3v12.87Zm-2.54-52.6c-.79-1.58-1.18-3.33-1.18-5.24,0-2.9,.87-5.35,2.62-7.33,1.75-1.99,3.92-2.98,6.52-2.98,2.29,0,4.1,.81,5.43,2.42v-11.07h6.23v28.81h-6.04v-2.13c-1.34,1.77-3.22,2.66-5.64,2.66-1.72,0-3.27-.46-4.67-1.38s-2.48-2.17-3.27-3.75Zm26.56,52.6h-6.05v-2.13c-1.34,1.77-3.22,2.66-5.64,2.66-1.72,0-3.27-.46-4.67-1.38s-2.48-2.17-3.27-3.75-1.18-3.33-1.18-5.24c0-2.9,.87-5.35,2.62-7.33s3.92-2.98,6.52-2.98c2.41,0,4.28,.89,5.62,2.66v-2.13h6.05v19.63Zm14.65-50.42c-2.02,1.97-4.57,2.95-7.63,2.95s-5.6-.98-7.62-2.95c-2.02-1.97-3.03-4.43-3.03-7.4s1.01-5.43,3.03-7.39c2.02-1.96,4.56-2.94,7.62-2.94s5.6,.98,7.63,2.94c2.02,1.96,3.04,4.42,3.04,7.39s-1.01,5.44-3.04,7.4Zm20.75,1.09c-1.6,1.22-3.83,1.84-6.68,1.84-3.92,0-6.94-.69-9.06-2.07l2.19-4.84c2.1,1.24,4.4,1.86,6.91,1.86,1.84,0,2.75-.43,2.75-1.29,0-.36-.23-.65-.68-.85-.46-.2-1.26-.39-2.42-.56l-1.15-.16c-2.36-.35-4.1-1.03-5.22-2.03-1.13-1-1.69-2.38-1.69-4.14,0-2.08,.75-3.7,2.24-4.84,1.49-1.15,3.57-1.72,6.24-1.72,1.56,0,2.95,.12,4.16,.37,1.21,.25,2.64,.68,4.28,1.31l-1.74,4.88c-1.03-.43-2.12-.79-3.28-1.07-1.16-.29-2.21-.44-3.16-.45-1.52,0-2.29,.4-2.29,1.19,0,.38,.24,.65,.72,.83s1.3,.35,2.44,.52l1.43,.21c2.11,.33,3.71,.99,4.79,1.99,1.09,1,1.63,2.32,1.63,3.96,0,2.15-.8,3.83-2.4,5.06Zm20.92,1.33h-6.25v-28.81h6.25v28.81Zm7.77-28.73h7.17l-5.55,6.62h-5.86l4.24-6.62Zm2.85,28.73h-6.25v-19.63h6.25v19.63Zm24.12,0h-6.04v-2.13c-1.34,1.77-3.22,2.66-5.64,2.66-1.72,0-3.27-.46-4.67-1.38s-2.48-2.17-3.27-3.75-1.18-3.33-1.18-5.24c0-2.9,.87-5.35,2.62-7.33,1.75-1.99,3.92-2.98,6.52-2.98,2.29,0,4.1,.81,5.43,2.42v-11.07h6.23v28.81Zm23.09-7.87h-13.3c.51,2.08,1.91,3.12,4.2,3.12,1.59,0,3.01-.57,4.28-1.72l4.04,3.77c-2.15,2.15-5.03,3.22-8.63,3.22-3.09,0-5.58-.94-7.49-2.83-1.91-1.89-2.86-4.36-2.86-7.4s.93-5.6,2.79-7.54c1.86-1.94,4.28-2.91,7.27-2.91s5.26,.95,7.08,2.86c1.82,1.91,2.73,4.4,2.74,7.47,0,.87-.04,1.52-.12,1.95Zm16.45-5.74c-1.08-.35-2.13-.53-3.14-.53-2.38,0-3.57,1.18-3.57,3.54v10.61h-6.25v-19.63h6v2.27c1.12-1.86,2.9-2.79,5.35-2.79,.77,0,1.5,.1,2.21,.29l-.59,6.25Z"/>
  <path class="cls-1" d="M630.9,621.11c-1.22,0-2.24,.42-3.04,1.26s-1.2,1.92-1.2,3.23,.4,2.4,1.2,3.24c.8,.85,1.81,1.27,3.04,1.27s2.26-.42,3.06-1.27c.8-.85,1.2-1.93,1.2-3.24s-.4-2.39-1.2-3.23-1.82-1.26-3.06-1.26Z"/>
  <path class="cls-1" d="M704.77,621.11c-1.24,0-2.24,.43-3.02,1.28-.77,.85-1.16,1.92-1.16,3.21s.39,2.38,1.16,3.23c.77,.85,1.78,1.28,3.02,1.28s2.23-.43,3.02-1.28c.79-.85,1.18-1.93,1.18-3.23s-.39-2.38-1.18-3.22c-.79-.85-1.79-1.27-3.02-1.27Z"/>
  <path class="cls-1" d="M728.34,620.58c-1.89,0-3.09,1-3.59,3.01h7.15c-.52-2-1.71-3.01-3.55-3.01Z"/>
  <path class="cls-1" d="M613.68,669.11c-1.24,0-2.24,.43-3.02,1.28s-1.16,1.92-1.16,3.21,.39,2.38,1.16,3.23,1.78,1.28,3.02,1.28,2.23-.43,3.02-1.28,1.18-1.93,1.18-3.23-.39-2.38-1.18-3.22-1.79-1.27-3.02-1.27Z"/>
</svg>