<svg xmlns="http://www.w3.org/2000/svg" width="116.416" height="36.219" viewBox="0 0 116.416 36.219"><defs><style>.a{fill:#fff;}</style></defs><g transform="translate(-435.208 -208.404)"><path class="a" d="M679.01,262.315h-5.174v-7.761h-1.294v9.055h6.468Z" transform="translate(-167.485 -32.568)"/><path class="a" d="M576.494,257.142c0-1.3-.637-2.587-3.162-2.587h-4.07v9.054h1.292v-3.88h2.263l1.94,3.88h1.617l-2.1-3.88c1.578,0,2.215-1.293,2.215-2.587m-5.939,1.294v-2.587h2.765c1.272,0,1.884.323,1.884,1.292s-.611,1.295-1.884,1.295Z" transform="translate(-94.601 -32.568)"/><path class="a" d="M534.877,254.555h-1.293l-3.88,9.054H531l.858-1.94h4.752l.858,1.94h1.293Zm-2.451,5.821,1.8-4.08,1.8,4.08Z" transform="translate(-66.684 -32.568)"/><path class="a" d="M607.785,254.555l-3.234,7.314-3.234-7.314h-1.294l3.88,9.055H605.2l3.88-9.055Z" transform="translate(-116.309 -32.568)"/><path class="a" d="M638.16,254.555h-1.293l-3.881,9.054h1.294l.858-1.94h4.752l.858,1.94h1.293Zm-2.451,5.821,1.8-4.08,1.8,4.08Z" transform="translate(-139.57 -32.568)"/><path class="a" d="M492.474,259.97l-2.82-5.415h-1.707v9.054h1.261v-7.144l2.691,5.2h1.149l2.691-5.2v7.144H497v-9.054h-1.707Z" transform="translate(-37.217 -32.568)"/><path class="a" d="M435.208,259.089h10.348V243.567H435.208Zm9.055-1.295H436.5V244.861h7.761Z" transform="translate(0 -24.814)"/><rect class="a" width="3.88" height="1.293" transform="translate(438.442 229.748)"/><rect class="a" width="3.88" height="1.293" transform="translate(438.442 221.986)"/><rect class="a" width="3.88" height="1.293" transform="translate(438.442 225.867)"/><rect class="a" width="1.294" height="9.701" transform="translate(487.594 234.275)"/><path class="a" d="M604.862,210.6h-.9l-.647.97h1.4c1.069,0,1.506.424,1.506,1.463V220.3h1.294v-7.123c0-1.759-.845-2.578-2.662-2.578" transform="translate(-118.635 -1.552)"/><path class="a" d="M725.811,208.4a18.109,18.109,0,1,0,18.109,18.109A18.109,18.109,0,0,0,725.811,208.4m0,34.908a16.8,16.8,0,1,1,16.8-16.8,16.8,16.8,0,0,1-16.8,16.8" transform="translate(-192.297 -0.001)"/><path class="a" d="M646.487,208.4a18.11,18.11,0,0,0-16.365,10.348h1.468a16.8,16.8,0,0,1,31.073,3.234h1.363A18.117,18.117,0,0,0,646.487,208.4" transform="translate(-137.55 0)"/><path class="a" d="M740.666,265.077a1.98,1.98,0,0,1,2.032-2.02,1.75,1.75,0,0,1,1.451.663l.008-.579h.644v3.881h-.644l-.008-.59a1.75,1.75,0,0,1-1.451.663,1.98,1.98,0,0,1-2.032-2.02m2.11,1.386a1.389,1.389,0,0,0,0-2.779,1.389,1.389,0,1,0,0,2.779" transform="translate(-215.559 -38.568)"/><path class="a" d="M760.525,259.4a1.5,1.5,0,0,1,1.613,1.644v2.336h-.714v-2.314c0-.663-.318-1.024-.9-1.024s-.908.361-.908,1.024v2.314H758.9v-2.336a1.5,1.5,0,0,1,1.621-1.644m-.605-1.5c.5,0,.745.428,1.078.428.179,0,.3-.125.31-.406h.5c0,.612-.333.921-.776.921-.5,0-.737-.427-1.07-.427-.178,0-.3.111-.318.4h-.5c0-.634.349-.914.768-.914" transform="translate(-228.43 -34.927)"/><path class="a" d="M773.066,265.047a2.107,2.107,0,1,1,2.11,2.027,2.027,2.027,0,0,1-2.11-2.027m2.11,1.386a1.393,1.393,0,1,0-1.4-1.386,1.343,1.343,0,0,0,1.4,1.386" transform="translate(-238.424 -38.531)"/><path class="a" d="M790.006,267.091v-.6a7.092,7.092,0,0,0,.768.052c.527,0,.776-.162.776-.494,0-.243-.147-.42-.527-.656l-.272-.169c-.535-.332-.776-.649-.776-1.069,0-.619.5-1,1.342-1a5,5,0,0,1,.628.044v.545c-.233-.022-.411-.029-.527-.029-.489,0-.745.155-.745.435,0,.206.155.368.535.6l.271.169c.559.346.8.671.8,1.12,0,.686-.543,1.091-1.474,1.091-.2,0-.5-.015-.8-.044" transform="translate(-250.356 -38.637)"/><path class="a" d="M646.487,297.591a16.793,16.793,0,0,1-14.9-9.037h-1.468a18.11,18.11,0,0,0,33.9-3.234h-1.357a16.8,16.8,0,0,1-16.175,12.271" transform="translate(-137.55 -54.279)"/></g></svg>