<svg xmlns="http://www.w3.org/2000/svg" width="250" height="115" viewBox="0 0 250 115">
  <metadata><?xpacket begin="﻿" id="W5M0MpCehiHzreSzNTczkc9d"?>
<x:xmpmeta xmlns:x="adobe:ns:meta/" x:xmptk="Adobe XMP Core 5.6-c142 79.160924, 2017/07/13-01:06:39        ">
   <rdf:RDF xmlns:rdf="http://www.w3.org/1999/02/22-rdf-syntax-ns#">
      <rdf:Description rdf:about=""/>
   </rdf:RDF>
</x:xmpmeta>
                                                                                                    
                                                                                                    
                                                                                                    
                                                                                                    
                                                                                                    
                                                                                                    
                                                                                                    
                                                                                                    
                                                                                                    
                                                                                                    
                                                                                                    
                                                                                                    
                                                                                                    
                                                                                                    
                                                                                                    
                                                                                                    
                                                                                                    
                                                                                                    
                                                                                                    
                                                                                                    
                           
<?xpacket end="w"?></metadata>
<defs>
    <style>
      .cls-1 {
        fill: #2d2d2d;
        fill-rule: evenodd;
      }
    </style>
  </defs>
  <g id="Mesa_de_trabajo_1" data-name="Mesa de trabajo 1">
    <path id="Forma_1" data-name="Forma 1" class="cls-1" d="M0.225,0H39.971V114.585c-2.433.8-9.206,0.19-12.3,0.19H0.414c-0.806-2.462-.189-7.833-0.189-10.814V0ZM89.938,31.682c0.214-1.7,1.469-3.161,2.082-4.553,1.686-3.832,3.3-7.568,5.11-11.193,0.747-1.5.848-4.311,3.029-4.363l9.274,20.109h-2.461c-0.384-1.849-1.582-3.375-2.271-4.933q-0.283-.853-0.568-1.707H95.048a21.8,21.8,0,0,1-2.271,4.932l-0.568,1.707H89.938Zm81.007-20.109h1.136c3.443,6.39,6.385,13.379,9.274,20.109h-2.271l-3.029-6.64h-8.9q-1.515,3.32-3.028,6.64H161.86V31.3c1.395-1.553,1.959-4.254,2.839-6.26,1.366-3.114,2.927-6.234,4.354-9.486A30.785,30.785,0,0,0,170.945,11.572Zm-107.694.19h2.082c1.884,3.217,4.967,5.632,7,8.727a0.537,0.537,0,0,0,.189-0.19c2.467-1.97,5.187-8.563,8.9-8.537,0.539,1.634.189,4.466,0.189,6.45V31.682H79.339V15.367H79.15v0.19c-1.658,1.61-5.237,7.526-7,8.158v-0.19c-2.177-2.093-4.279-6.405-6.624-7.968V31.682H63.251V11.762Zm56.592,10.814v9.106h-2.272V11.952c1.613-.543,4.471-0.205,6.436-0.19,0.99,0.586,2.5.336,3.406,0.949,3.525,2.373,2.6,7.464-.946,9.106,2.033,3.3,4.817,6.333,6.624,9.865h-2.649c-0.391-1.269-1.439-2.206-2.082-3.225-0.947-1.5-1.616-2.974-2.65-4.363a14.769,14.769,0,0,0-1.893-1.518h-3.974Zm18.548-10.814h2.082c1.326,3.442,2.67,6.789,4.164,10.244a35.332,35.332,0,0,1,2.271,5.312h0.379a11.869,11.869,0,0,1,1.324-3.225c1.184-2.773,2.266-5.525,3.407-8.157,0.292-.672,1.147-3.906,1.514-4.174H155.8v0.38c-1.374,1.595-1.79,4.415-2.65,6.45-1.253,2.964-2.474,6.018-3.785,9.106a18.348,18.348,0,0,0-1.7,4.174H146.53c-0.542-2.339-1.94-4.572-2.84-6.64-1.232-2.833-1.991-5.512-3.217-8.347C139.8,15.322,138.6,13.708,138.391,11.762Zm51.292,0h2.082V29.785h9.463v1.9H189.683V11.762Zm-69.84,1.9v6.83c4.577,0.1,5.086.219,7.381-2.087a8.185,8.185,0,0,0-.378-3.225C125,14,123.114,13.646,119.843,13.659ZM99.4,15.367c-0.255,1.942-2.512,5.944-3.407,7.778h7.192v-0.19C101.492,20.978,101.434,16.975,99.4,15.367Zm72.111,0c-1.1,2.54-2.718,5.023-3.407,7.778h7v-0.38C173.368,20.823,173.321,17.242,171.513,15.367ZM8.363,19.92v3.794H31.833V19.92H8.363ZM72.525,47.048c7.2,0.168,13.721,6.631,10.221,14.608-1.325,3.019-4.4,5.062-7.949,5.881-7.395,1.707-14.459-6.282-11.924-13.28a11.175,11.175,0,0,1,6.057-6.45C69.932,47.388,71.569,47.623,72.525,47.048Zm43.343,13.659a51.818,51.818,0,0,1-2.839,6.64h-2.271V66.968c1.3-1.481,1.82-4,2.649-5.881,1.232-2.8,2.936-5.742,4.164-8.537,0.748-1.7,1.308-5.294,3.6-5.312l9.084,20.109h-2.271l-3.028-6.64h-9.085ZM87.1,47.428h2.082v5.5H87.1v-5.5Zm7.949,0h10.41v1.9H97.13v6.64H104.7v1.9H97.13v9.485H95.048V47.428Zm43.532,0c5.928-.129,10.453-0.467,11.735,4.174a5.723,5.723,0,0,1-.189,3.415c-0.55,1.213-2.079,1.545-2.65,2.656,1.131,0.892,6,8.174,6.435,9.675h-2.46c-0.924-1.933-4.807-8.483-6.625-9.106l-4.164-.19v9.3H138.58V47.428Zm22.9,0c5.928-.128,10.453-0.468,11.734,4.174a5.914,5.914,0,0,1,0,3.035c-0.558,1.467-2.2,1.795-2.839,3.035,1.044,0.825,1.52,2.093,2.272,3.225,1.406,2.12,3.032,4.241,4.353,6.45h-2.65c-0.846-1.8-4.836-8.571-6.624-8.916-0.854-.573-2.789-0.4-4.164-0.38v9.3h-2.082V47.428Zm23.091,0h11.166v1.9h-8.9v7.019h8.706v1.9h-8.706V65.45h9.274v1.707c-2.54.847-8.275,0.2-11.356,0.19-0.539-1.634-.189-4.466-0.189-6.45V47.428Zm20.819,0h2.082V65.45h9.653v1.707c-2.288.762-8.8,0.2-11.735,0.19V47.428Zm19.873,0h2.272V65.45H237v1.9H225.455c-0.539-1.634-.19-4.466-0.19-6.45V47.428ZM72.525,49.135c-0.7.424-1.861,0.238-2.65,0.569a9.022,9.022,0,0,0-4.732,4.933c-2.01,5.625,3.363,12.418,9.653,10.813C84.018,63.1,83.237,49.381,72.525,49.135Zm68.137,0.19v6.83A22.3,22.3,0,0,0,147.1,55.4c1.245-1.886,1.218-2.377.568-4.743C145.579,49.409,144.137,49.31,140.662,49.325Zm22.9,0v6.83A22.31,22.31,0,0,0,170,55.4a5.043,5.043,0,0,0,.946-4.174C168.454,49.289,168.023,49.291,163.564,49.325ZM120.41,50.842c-0.65,2.709-2.4,5.525-3.6,7.968h7.193V58.431ZM8.363,55.585v3.6H31.833v-3.6H8.363ZM63.251,82.9h2.082c1.662,3.285,4.984,5.692,7,8.727h0.189V91.44c2.46-1.961,5.234-8.563,8.9-8.537,0.539,1.634.189,4.466,0.189,6.45v13.469H79.339V86.508H79.15V86.7a53.912,53.912,0,0,0-4.921,5.881c-0.612.826-.954,1.978-2.082,2.276-1.157-2-3.01-3.514-4.353-5.312A11.013,11.013,0,0,0,65.522,86.7v16.125H63.251V82.9Zm35.582,0h1.514c0.68,2.883,2.647,5.58,3.785,8.157,1.776,4.021,3.425,7.9,5.3,11.762h-2.461c-0.382-1.839-1.58-3.37-2.271-4.932q-0.283-.854-0.568-1.707H95.048a21.737,21.737,0,0,1-2.271,4.933l-0.568,1.707H89.938v-0.379c1.507-1.978,2.182-4.849,3.218-7.209C94.9,91.255,97.643,87.251,98.834,82.9Zm21.009,19.92h-2.272V83.093a6.983,6.983,0,0,1,2.082-.19c0.539,1.634.19,4.466,0.19,6.45v13.469Zm12.681-9.106v9.106h-2.272V83.093c1.514-.51,4.2-0.205,6.057-0.19,1.2,0.709,2.9.407,3.975,1.138,1.514,1.03,2.81,4.8,1.325,7.019-0.622.929-1.835,1.339-2.65,2.087h0.189c2.057,3.221,4.616,6.335,6.624,9.675h-2.649c-0.839-1.77-4.62-8.159-6.246-8.727C136.078,93.471,133.914,93.688,132.524,93.717ZM159.968,82.9h1.514c0.382,1.839,1.58,3.37,2.271,4.932,1.519,3.438,2.843,6.616,4.353,10.055,0.7,1.588,1.815,3.087,2.271,4.932h-2.271a23.013,23.013,0,0,0-2.271-4.932l-0.568-1.707h-9.085a21.883,21.883,0,0,1-2.271,4.933q-0.284.854-.568,1.707h-2.46v-0.19c1.554-1.726,2.242-4.8,3.217-7.019C155.9,91.508,158.72,87.343,159.968,82.9Zm21.008,18.023h9.464v1.9H178.705V83.093a6.983,6.983,0,0,1,2.082-.19c0.489,1.483.189,4.058,0.189,5.881v12.142ZM132.524,84.99v6.83c1.911,0.044,4.538.17,5.867-.569,0.488-.271.845-0.987,1.325-1.328a13.333,13.333,0,0,0,0-3.225C137.131,84.957,136.966,84.958,132.524,84.99Zm28.011,1.518c-0.518,2.476-2.328,5.507-3.406,7.778h7.192V94.1C162.726,92.316,162.3,87.911,160.535,86.508ZM99.4,86.7c-0.618,2.575-2.267,5.259-3.407,7.588h7.192V94.1C101.87,92.6,100.97,87.489,99.4,86.7ZM8.363,91.061v3.794H31.833V91.061H8.363Z"/>
  </g>
</svg>
