<svg xmlns="http://www.w3.org/2000/svg" width="49.514" height="49.436" viewBox="0 0 49.514 49.436">
  <g id="cfbf0fff1568e18b08ac882638cbcb3e" transform="translate(-1.213 -1.25)">
    <path id="Trazado_34984" data-name="Trazado 34984" d="M164.662,42a2.71,2.71,0,0,0-2.217,4.163l9.038,13.021a18.833,18.833,0,1,0,29.134.007l8.814-12.556A3.007,3.007,0,0,0,206.964,42H194.8a5.567,5.567,0,0,0-4.885,2.912l-4,7.366a18.745,18.745,0,0,0-11.987,4.434L166.1,45.424h11.747a1.233,1.233,0,0,1,1.083.642L181.114,50a1.711,1.711,0,1,0,2.993-1.659L181.923,44.4a4.672,4.672,0,0,0-4.077-2.4ZM194.8,45.424h11.3L198.17,56.716a18.768,18.768,0,0,0-8.54-4.093l3.3-6.079a2.126,2.126,0,0,1,1.875-1.12ZM186.049,55.7A15.408,15.408,0,1,1,170.641,71.1,15.382,15.382,0,0,1,186.049,55.7Z" transform="translate(-160 -40)" fill="none" stroke="#2c5697" stroke-width="1.5"/>
    <path id="Trazado_34985" data-name="Trazado 34985" d="M8.623,0A1.711,1.711,0,0,0,7.06,1.2L5.672,5.679,1.2,7.07A1.714,1.714,0,0,0,.721,10.1l3.822,2.707L4.484,17.5A1.711,1.711,0,0,0,7.215,18.89l3.752-2.8L15.4,17.593a1.712,1.712,0,0,0,2.17-2.173l-1.5-4.438,2.8-3.757A1.713,1.713,0,0,0,17.473,4.49l-4.68.058L10.089.722A1.71,1.71,0,0,0,8.623,0ZM9.3,5.536l1.222,1.727a1.71,1.71,0,0,0,1.42.724l2.108-.027L12.785,9.653a1.715,1.715,0,0,0-.248,1.576l.677,2-2-.678A1.709,1.709,0,0,0,9.64,12.8L7.95,14.064l.027-2.111a1.714,1.714,0,0,0-.723-1.421L5.529,9.308l2.015-.627A1.712,1.712,0,0,0,8.67,7.554Z" transform="matrix(0.988, 0.155, -0.154, 0.988, 17.713, 19.49)" fill="none" stroke="#2c5697" stroke-width="1.5"/>
  </g>
</svg>
