<svg xmlns="http://www.w3.org/2000/svg" width="55" height="53.255" viewBox="0 0 55 53.255">
  <g id="Grupo_12116" data-name="Grupo 12116" transform="translate(-243 -3584)">
    <g id="_0d7d8d21c7b64a6c5b9237935e11562b" data-name="0d7d8d21c7b64a6c5b9237935e11562b" transform="translate(243 3584)">
      <path id="Trazado_34969" data-name="Trazado 34969" d="M54.367,33.953H49.186l-4.8-1.6-1.559-3.9V25.521a3.985,3.985,0,0,0-3.557-3.95c0-.122.006-.243.006-.365V8.213a.888.888,0,0,0-.633-.85L20.894,2.037a.888.888,0,0,0-.509,0L2.633,7.363A.888.888,0,0,0,2,8.213V21.206c0,.412.028.818.043,1.228h0c.022.6.056,1.195.109,1.787.009.1.021.2.031.3a32.784,32.784,0,0,0,18.06,26.212.888.888,0,0,0,.793,0,33.174,33.174,0,0,0,3.836-2.26,3.582,3.582,0,0,0,1.036.955,3.55,3.55,0,0,0,2.72,5.831H43.716a.893.893,0,0,0,.493-.149l5.1-3.4h5.059a.888.888,0,0,0,.888-.888V34.84A.888.888,0,0,0,54.367,33.953Zm-19.21-4.361,1.035,2.586H31.035a23.012,23.012,0,0,0,2.911-11.054L37.5,20.057v1.149c0,.19-.006.379-.01.569a3.988,3.988,0,0,0-2.653,3.746v2.422a4.43,4.43,0,0,0,.317,1.649ZM22.414,35.728a3.533,3.533,0,0,0,.976,2.435c-.329.24-.652.488-.992.71L20.639,40,18.883,38.87A21.221,21.221,0,0,1,10.371,28.2l21.781-6.534a21.234,21.234,0,0,1-3.186,10.515h-3A3.55,3.55,0,0,0,22.414,35.728ZM4.257,26.619c-.007-.044-.015-.089-.022-.131l3.527-1.055c.1.533.232,1.065.374,1.585L4.558,28.091C4.441,27.582,4.344,27.1,4.257,26.619Zm-.409-3.565L7.358,22c.025.557.066,1.109.13,1.658l-3.5,1.051c-.009-.08-.016-.159-.025-.239C3.915,24.012,3.875,23.548,3.848,23.053ZM32.178,12.7,9.1,19.624V13.277L20.669,9.145l11.508,3.288Zm0,1.853v1.7L9.221,23.138q-.083-.827-.1-1.665ZM37.5,16.507v1.7l-3.55,1.065v-1.7Zm0-1.853-3.55,1.065v-1.7l3.55-1.065ZM9.47,24.916l14.443-4.332,8.265-2.48v1.7L9.836,26.5C9.7,25.981,9.57,25.452,9.47,24.916ZM3.775,8.873,20.639,3.814,37.5,8.873V11.1l-3.55,1.065v-.4a.888.888,0,0,0-.643-.853L20.883,7.36a.878.878,0,0,0-.542.017L7.915,11.815a.888.888,0,0,0-.589.836v7.505l-3.55,1.065Zm16.864,40.06A31.031,31.031,0,0,1,4.97,29.817l3.7-1.109a22.981,22.981,0,0,0,9.255,11.656L20.159,41.8a.888.888,0,0,0,.96,0l2.236-1.437.023-.015A3.509,3.509,0,0,0,25.023,44.1a3.54,3.54,0,0,0-.833,2.284,3.379,3.379,0,0,0,.025.369,31.263,31.263,0,0,1-3.575,2.185ZM43.45,53.479H28.627a1.769,1.769,0,0,1-.147-3.532.906.906,0,0,0,.812-.941.888.888,0,0,0-.888-.853H27.74a1.775,1.775,0,1,1,0-3.55.888.888,0,1,0,0-1.775h-.888a1.775,1.775,0,0,1,0-3.55.888.888,0,0,0,0-1.775h-.888a1.775,1.775,0,1,1,0-3.55H37.5a.888.888,0,0,0,.825-1.218l-1.521-3.8a2.642,2.642,0,0,1-.191-.99V25.521a2.219,2.219,0,0,1,4.438,0v3.107a.9.9,0,0,0,.063.33L42.892,33.4a.893.893,0,0,0,.544.512l4.718,1.573V50.342Zm10.03-3.55h-3.55v-14.2h3.55ZM48.7,13.4l-1.213,1.3A13.238,13.238,0,0,1,48.632,15.9L50,14.768A15.084,15.084,0,0,0,48.7,13.4ZM53.479,24.41q0-.522-.036-1.034l-1.771.12q.03.453.031.914c0,.251-.007.5-.021.749l1.775.1Q53.479,24.838,53.479,24.41ZM47.253,12.2a15.158,15.158,0,0,0-1.591-1.012l-.857,1.554a13.339,13.339,0,0,1,1.4.888Z" transform="translate(-2 -2)" fill="#2c5697"/>
    </g>
    <rect id="Rectángulo_2618" data-name="Rectángulo 2618" width="13" height="16" transform="translate(285 3592.255)" fill="#fff"/>
  </g>
</svg>
