<svg xmlns="http://www.w3.org/2000/svg" width="46.304" height="46.199" viewBox="0 0 46.304 46.199">
  <g id="Grupo_12180" data-name="Grupo 12180" transform="translate(-204.529 -3776.406)">
    <g id="b30a299fc221856af8c45adb1df42f6f" transform="translate(-33.471 3536.687)">
      <path id="Trazado_34977" data-name="Trazado 34977" d="M245.663,344.544h-7.116A.549.549,0,0,1,238,344V331.4a.549.549,0,0,1,.547-.547h7.116a.549.549,0,0,1,.547.547V344A.545.545,0,0,1,245.663,344.544Zm-6.569-1.094h6.022V331.943h-6.022Zm19.255,1.094h-7.116a.549.549,0,0,1-.547-.547v-20.43a.548.548,0,0,1,.547-.547h7.116a.549.549,0,0,1,.547.547V344A.547.547,0,0,1,258.348,344.544Zm-6.569-1.094H257.8V324.113h-6.022Zm19.255,1.094h-7.116a.549.549,0,0,1-.547-.547V319.465a.549.549,0,0,1,.547-.547h7.116a.549.549,0,0,1,.547.547V344A.547.547,0,0,1,271.034,344.544Zm-6.572-1.094h6.022V320.012h-6.022Zm19.255,1.094H276.6a.549.549,0,0,1-.547-.547V312.3a.549.549,0,0,1,.547-.547h7.116a.549.549,0,0,1,.547.547V344A.545.545,0,0,1,283.716,344.544Zm-6.569-1.094h6.022v-30.6h-6.022ZM240.09,326.541a.556.556,0,0,1-.465-.258l-1.544-2.488a.55.55,0,0,1,.176-.754l10.631-6.593,11.567-14.879a.533.533,0,0,1,.45-.21.545.545,0,0,1,.435.243l5.749,8.556L279,300.31l.009-.009a.547.547,0,0,1,.684.854l-12.369,10.23a.543.543,0,0,1-.428.119.556.556,0,0,1-.377-.237l-5.661-8.429-11.163,14.357a.519.519,0,0,1-.143.128L239.3,323.679l.966,1.559,10.61-6.581,9.4-12.1a.545.545,0,0,1,.884.033l5.3,7.882,14.4-11.908.009-.009a.547.547,0,0,1,.684.854L266.695,315.7a.543.543,0,0,1-.428.118.56.56,0,0,1-.377-.237l-5.208-7.751-9,11.576a.521.521,0,0,1-.143.128l-11.16,6.922A.547.547,0,0,1,240.09,326.541Z" transform="translate(0 -58.626)" fill="#2c5697"/>
      <path id="Trazado_34978" data-name="Trazado 34978" d="M1554.8,245.907a.558.558,0,0,1-.422-.2l-.826-1a.546.546,0,1,1,.842-.7l.2.24,1.124-3.327-3.479.477.289.349a.546.546,0,0,1-.842.7l-.914-1.106a.541.541,0,0,1-.088-.547.55.55,0,0,1,.434-.343l5.326-.732a.548.548,0,0,1,.593.717l-1.72,5.092a.542.542,0,0,1-.419.362A.355.355,0,0,1,1554.8,245.907Z" transform="translate(-1272.765 0)" fill="#2c5697"/>
    </g>
    <g id="b30a299fc221856af8c45adb1df42f6f-2" data-name="b30a299fc221856af8c45adb1df42f6f" transform="translate(-33.471 3536.687)">
      <path id="Trazado_34977-2" data-name="Trazado 34977" d="M245.663,344.544h-7.116A.549.549,0,0,1,238,344V331.4a.549.549,0,0,1,.547-.547h7.116a.549.549,0,0,1,.547.547V344A.545.545,0,0,1,245.663,344.544Zm-6.569-1.094h6.022V331.943h-6.022Zm19.255,1.094h-7.116a.549.549,0,0,1-.547-.547v-20.43a.548.548,0,0,1,.547-.547h7.116a.549.549,0,0,1,.547.547V344A.547.547,0,0,1,258.348,344.544Zm-6.569-1.094H257.8V324.113h-6.022Zm19.255,1.094h-7.116a.549.549,0,0,1-.547-.547V319.465a.549.549,0,0,1,.547-.547h7.116a.549.549,0,0,1,.547.547V344A.547.547,0,0,1,271.034,344.544Zm-6.572-1.094h6.022V320.012h-6.022Zm19.255,1.094H276.6a.549.549,0,0,1-.547-.547V312.3a.549.549,0,0,1,.547-.547h7.116a.549.549,0,0,1,.547.547V344A.545.545,0,0,1,283.716,344.544Zm-6.569-1.094h6.022v-30.6h-6.022ZM240.09,326.541a.556.556,0,0,1-.465-.258l-1.544-2.488a.55.55,0,0,1,.176-.754l10.631-6.593,11.567-14.879a.533.533,0,0,1,.45-.21.545.545,0,0,1,.435.243l5.749,8.556L279,300.31l.009-.009a.547.547,0,0,1,.684.854l-12.369,10.23a.543.543,0,0,1-.428.119.556.556,0,0,1-.377-.237l-5.661-8.429-11.163,14.357a.519.519,0,0,1-.143.128L239.3,323.679l.966,1.559,10.61-6.581,9.4-12.1a.545.545,0,0,1,.884.033l5.3,7.882,14.4-11.908.009-.009a.547.547,0,0,1,.684.854L266.695,315.7a.543.543,0,0,1-.428.118.56.56,0,0,1-.377-.237l-5.208-7.751-9,11.576a.521.521,0,0,1-.143.128l-11.16,6.922A.547.547,0,0,1,240.09,326.541Z" transform="translate(0 -58.626)" fill="#2c5697"/>
      <path id="Trazado_34978-2" data-name="Trazado 34978" d="M1554.8,245.907a.558.558,0,0,1-.422-.2l-.826-1a.546.546,0,1,1,.842-.7l.2.24,1.124-3.327-3.479.477.289.349a.546.546,0,0,1-.842.7l-.914-1.106a.541.541,0,0,1-.088-.547.55.55,0,0,1,.434-.343l5.326-.732a.548.548,0,0,1,.593.717l-1.72,5.092a.542.542,0,0,1-.419.362A.355.355,0,0,1,1554.8,245.907Z" transform="translate(-1272.765 0)" fill="#2c5697"/>
    </g>
  </g>
</svg>
