<svg xmlns="http://www.w3.org/2000/svg" xmlns:xlink="http://www.w3.org/1999/xlink" width="55.631" height="55.761" viewBox="0 0 55.631 55.761">
  <defs>
    <clipPath id="clip-path">
      <rect id="Rectángulo_2621" data-name="Rectángulo 2621" width="55.631" height="55.761" fill="none" stroke="#2c5697" stroke-width="1.5"/>
    </clipPath>
  </defs>
  <g id="Grupo_12119" data-name="Grupo 12119" transform="translate(0 -0.004)">
    <g id="Grupo_12118" data-name="Grupo 12118" transform="translate(0 0.004)" clip-path="url(#clip-path)">
      <path id="Trazado_34986" data-name="Trazado 34986" d="M561.712,20.24V16.079h1.979a.517.517,0,0,0,.312-.924l-4.339-3.409a.5.5,0,0,0-.624,0L554.7,15.155a.517.517,0,0,0,.312.924h1.935v4.145" transform="translate(-531.537 -11.156)" fill="none" stroke="#2c5697" stroke-linecap="round" stroke-linejoin="round" stroke-width="1.5"/>
      <path id="Trazado_34987" data-name="Trazado 34987" d="M556.992,1126.945v4.161h-1.979a.517.517,0,0,0-.312.924l4.339,3.409a.5.5,0,0,0,.624,0L564,1132.03a.517.517,0,0,0-.312-.924h-1.935v-4.161" transform="translate(-531.536 -1080.268)" fill="none" stroke="#2c5697" stroke-linecap="round" stroke-linejoin="round" stroke-width="1.5"/>
      <path id="Trazado_34988" data-name="Trazado 34988" d="M21.8,32.074a9.806,9.806,0,0,1-2.961-7.033V17.167H20.82a.517.517,0,0,0,.312-.924l-4.339-3.409a.5.5,0,0,0-.624,0l-4.339,3.409a.517.517,0,0,0,.312.924h1.935v9a14.039,14.039,0,0,0,6.091,11.57" transform="translate(-11.151 -12.199)" fill="none" stroke="#2c5697" stroke-linecap="round" stroke-linejoin="round" stroke-width="1.5"/>
      <path id="Trazado_34989" data-name="Trazado 34989" d="M21.788,735.412a9.806,9.806,0,0,0-2.946,7.019v7.874H20.82a.517.517,0,0,1,.312.924l-4.339,3.409a.5.5,0,0,1-.624,0l-4.339-3.409a.517.517,0,0,1,.312-.924h1.935v-9a14.039,14.039,0,0,1,6.091-11.57" transform="translate(-11.151 -699.512)" fill="none" stroke="#2c5697" stroke-linecap="round" stroke-linejoin="round" stroke-width="1.5"/>
      <path id="Trazado_34990" data-name="Trazado 34990" d="M1086.1,32.07a9.806,9.806,0,0,0,2.956-7.028V17.168h-1.979a.517.517,0,0,1-.312-.924l4.339-3.409a.5.5,0,0,1,.624,0l4.339,3.409a.517.517,0,0,1-.312.924h-1.935v9a14.039,14.039,0,0,1-6.091,11.57" transform="translate(-1041.112 -12.2)" fill="none" stroke="#2c5697" stroke-linecap="round" stroke-linejoin="round" stroke-width="1.5"/>
      <path id="Trazado_34991" data-name="Trazado 34991" d="M1086.318,735.415a9.805,9.805,0,0,1,2.947,7.019v7.874h-1.979a.517.517,0,0,0-.312.924l4.339,3.409a.5.5,0,0,0,.624,0l4.339-3.409a.517.517,0,0,0-.312-.924h-1.935v-9a14.039,14.039,0,0,0-6.091-11.57" transform="translate(-1041.324 -699.515)" fill="none" stroke="#2c5697" stroke-linecap="round" stroke-linejoin="round" stroke-width="1.5"/>
      <path id="Trazado_34992" data-name="Trazado 34992" d="M489.571,371.178v-.635a4.756,4.756,0,0,0-4.756-4.756h-1.962a4.756,4.756,0,0,0-4.756,4.756v.637a2.389,2.389,0,0,0,0,4.778v.195a5.2,5.2,0,0,0,5.2,5.2h1.079a5.2,5.2,0,0,0,5.2-5.2v-.193a2.391,2.391,0,1,0,0-4.781Z" transform="translate(-456.035 -350.637)" fill="none" stroke="#2c5697" stroke-linecap="round" stroke-linejoin="round" stroke-width="1.5"/>
      <path id="Trazado_34993" data-name="Trazado 34993" d="M496.482,300.525h3.138a2.824,2.824,0,0,0,2.824-2.824H493.99a4.725,4.725,0,0,0-4.725,4.725v4.34" transform="translate(-469 -285.371)" fill="none" stroke="#2c5697" stroke-linecap="round" stroke-linejoin="round" stroke-width="1.5"/>
      <path id="Trazado_34994" data-name="Trazado 34994" d="M798.745,331.058a3.316,3.316,0,0,1,2.243,3.329v4.308" transform="translate(-765.662 -317.346)" fill="none" stroke="#2c5697" stroke-linecap="round" stroke-linejoin="round" stroke-width="1.5"/>
      <path id="Trazado_34995" data-name="Trazado 34995" d="M614.652,731.421v3.063a2.57,2.57,0,0,1-5.14,0v-3.049" transform="translate(-584.267 -701.126)" fill="none" stroke="#2c5697" stroke-linecap="round" stroke-linejoin="round" stroke-width="1.5"/>
      <path id="Trazado_34996" data-name="Trazado 34996" d="M627.637,643.128a2.805,2.805,0,0,1-3.968,0" transform="translate(-597.837 -616.49)" fill="none" stroke="#2c5697" stroke-linecap="round" stroke-linejoin="round" stroke-width="1.5"/>
      <path id="Trazado_34997" data-name="Trazado 34997" d="M560.918,817.3l-2.924,3.018-1.857-5.184" transform="translate(-533.103 -781.372)" fill="none" stroke="#2c5697" stroke-linecap="round" stroke-linejoin="round" stroke-width="1.5"/>
      <path id="Trazado_34998" data-name="Trazado 34998" d="M671.564,817.3l2.842,3.018,2.006-5.184" transform="translate(-643.749 -781.372)" fill="none" stroke="#2c5697" stroke-linecap="round" stroke-linejoin="round" stroke-width="1.5"/>
      <path id="Trazado_34999" data-name="Trazado 34999" d="M634.812,908.62v1.087a1.639,1.639,0,0,1-1.639,1.639h0a1.639,1.639,0,0,1-1.639-1.639V908.6" transform="translate(-605.376 -870.965)" fill="none" stroke="#2c5697" stroke-linecap="round" stroke-linejoin="round" stroke-width="1.5"/>
      <path id="Trazado_35000" data-name="Trazado 35000" d="M631.826,979.05v-2.818a1.627,1.627,0,1,1,3.254,0v2.581" transform="translate(-605.656 -934.238)" fill="none" stroke="#2c5697" stroke-linecap="round" stroke-linejoin="round" stroke-width="1.5"/>
      <path id="Trazado_35001" data-name="Trazado 35001" d="M414.774,805.377a9.271,9.271,0,0,0-8.414,7.018" transform="translate(-389.529 -772.019)" fill="none" stroke="#2c5697" stroke-linecap="round" stroke-linejoin="round" stroke-width="1.5"/>
      <path id="Trazado_35002" data-name="Trazado 35002" d="M733.617,805.377a9.271,9.271,0,0,1,8.414,7.018" transform="translate(-703.231 -772.019)" fill="none" stroke="#2c5697" stroke-linecap="round" stroke-linejoin="round" stroke-width="1.5"/>
      <circle id="Elipse_86" data-name="Elipse 86" cx="18.942" cy="18.942" r="18.942" transform="translate(8.874 8.939)" fill="none" stroke="#2c5697" stroke-linecap="round" stroke-linejoin="round" stroke-width="1.5"/>
    </g>
  </g>
</svg>
