<svg xmlns="http://www.w3.org/2000/svg" width="61.758" height="61.758" viewBox="0 0 61.758 61.758">
  <g id="_0819c84ae3de4cca1f0ba5b9524ad3e9" data-name="0819c84ae3de4cca1f0ba5b9524ad3e9" transform="matrix(0.695, 0.719, -0.719, 0.695, 31.645, -13.001)">
    <path id="Trazado_34973" data-name="Trazado 34973" d="M32.232,1A11.756,11.756,0,0,0,20.5,12.825a12.028,12.028,0,0,0,2.252,6.945,9.652,9.652,0,0,1,3.566-8.634,6.9,6.9,0,0,1,5.913-3.285,7.183,7.183,0,0,1,6.007,3.285A9.652,9.652,0,0,1,41.8,19.77,11.827,11.827,0,0,0,32.232,1Z" transform="translate(-1.199)" fill="none" stroke="#2c5697" stroke-width="1.5"/>
    <circle id="Elipse_82" data-name="Elipse 82" cx="5.256" cy="5.256" r="5.256" transform="translate(25.777 9.728)" fill="none" stroke="#2c5697" stroke-width="1.5"/>
    <path id="Trazado_34974" data-name="Trazado 34974" d="M32.225,63.77A11.827,11.827,0,0,0,41.8,45a9.386,9.386,0,0,1-3.566,8.541,7.06,7.06,0,0,1-6.007,3.285,7.183,7.183,0,0,1-6.007-3.285A9.579,9.579,0,0,1,22.652,45a11.827,11.827,0,0,0,9.573,18.77Z" transform="translate(-1.193 -2.705)" fill="none" stroke="#2c5697" stroke-width="1.5"/>
    <circle id="Elipse_83" data-name="Elipse 83" cx="5.256" cy="5.256" r="5.256" transform="translate(25.777 41.826)" fill="none" stroke="#2c5697" stroke-width="1.5"/>
    <path id="Trazado_34975" data-name="Trazado 34975" d="M51.945,20.5A11.81,11.81,0,0,0,45,22.752a9.652,9.652,0,0,1,8.634,3.566,7.06,7.06,0,0,1,3.285,6.007,6.9,6.9,0,0,1-3.285,5.913A9.652,9.652,0,0,1,45,41.8a11.794,11.794,0,1,0,6.945-21.3Z" transform="translate(-2.705 -1.199)" fill="none" stroke="#2c5697" stroke-width="1.5"/>
    <circle id="Elipse_84" data-name="Elipse 84" cx="5.256" cy="5.256" r="5.256" transform="translate(41.826 25.777)" fill="none" stroke="#2c5697" stroke-width="1.5"/>
    <path id="Trazado_34976" data-name="Trazado 34976" d="M12.825,44.051A11.81,11.81,0,0,0,19.77,41.8a9.653,9.653,0,0,1-8.634-3.566,7.134,7.134,0,0,1,0-12.013,9.482,9.482,0,0,1,8.541-3.566A11.81,11.81,0,0,0,12.732,20.4a11.826,11.826,0,0,0,.094,23.651Z" transform="translate(0 -1.193)" fill="none" stroke="#2c5697" stroke-width="1.5"/>
    <circle id="Elipse_85" data-name="Elipse 85" cx="5.256" cy="5.256" r="5.256" transform="translate(9.728 25.777)" fill="none" stroke="#2c5697" stroke-width="1.5"/>
  </g>
</svg>
