<svg xmlns="http://www.w3.org/2000/svg" width="41.372" height="48.268" viewBox="0 0 41.372 48.268">
  <g id="ec30fa10b4d7aa9975b26bc89e116dd9" transform="translate(-4 -2)">
    <path id="Trazado_34891" data-name="Trazado 34891" d="M43.648,2H39.142A5.2,5.2,0,0,0,34.3,5.356l-.033.091H15.107l-.034-.091A5.2,5.2,0,0,0,10.23,2H5.724a1.724,1.724,0,1,0,0,3.448H10.23a1.724,1.724,0,0,1,1.615,1.119l3.494,9.309a5.2,5.2,0,0,0,4.841,3.363h2.782v1.908a10.171,10.171,0,0,0-4.482,1.884,1.724,1.724,0,1,0,2.069,2.758,7,7,0,0,1,8.274,0,1.724,1.724,0,1,0,2.069-2.758,10.171,10.171,0,0,0-4.482-1.9v-1.9h2.782a5.2,5.2,0,0,0,4.844-3.356l3.493-9.309a1.734,1.734,0,0,1,1.614-1.126h4.506a1.724,1.724,0,1,0,0-3.448ZM30.807,14.672a1.734,1.734,0,0,1-1.615,1.119H20.18a1.724,1.724,0,0,1-1.615-1.119L16.4,8.9H32.973Z" fill="#2c5697"/>
    <path id="Trazado_34892" data-name="Trazado 34892" d="M33.858,33.238H32.134V28.067a1.724,1.724,0,0,0-1.724-1.724H26.962V21.172a5.172,5.172,0,1,0-10.343,0v5.172H14.9V21.172a1.724,1.724,0,0,0-1.724-1.724H9.724a1.724,1.724,0,1,0,0,3.448h1.724v5.172a1.724,1.724,0,0,0,1.724,1.724h3.448v5.172a5.172,5.172,0,0,0,10.343,0V29.791h1.724v5.172a1.724,1.724,0,0,0,1.724,1.724h3.448a1.724,1.724,0,0,0,0-3.448ZM23.515,34.962a1.724,1.724,0,1,1-3.448,0V21.172a1.724,1.724,0,1,1,3.448,0Z" transform="translate(2.895 10.134)" fill="#2c5697"/>
  </g>
</svg>
