<svg xmlns="http://www.w3.org/2000/svg" width="42.802" height="42.705" viewBox="0 0 42.802 42.705">
  <g id="db69436b15a52460e4c24f930af0b83e" transform="translate(-10 -9.9)">
    <path id="Trazado_34889" data-name="Trazado 34889" d="M48.347,52.7H14.261A4.3,4.3,0,0,1,10,48.439V17.161c0-2.324,1.549-4.261,3.583-4.261h2.13v2.808h-2.13c-.291,0-.678.581-.678,1.453V48.439a1.489,1.489,0,0,0,1.453,1.453H48.444A1.489,1.489,0,0,0,49.9,48.439V17.161c0-.872-.484-1.453-.678-1.453h-2.13V12.9h2.13c1.937,0,3.583,1.937,3.583,4.261V48.439A4.609,4.609,0,0,1,48.347,52.7" transform="translate(0 -0.095)" fill="#2c5697"/>
    <path id="Trazado_34890" data-name="Trazado 34890" d="M20.066,18.518a1.489,1.489,0,0,1-1.453-1.453V11.353a1.453,1.453,0,0,1,2.905,0v5.713a1.561,1.561,0,0,1-1.453,1.453m22.66,0a1.489,1.489,0,0,1-1.453-1.453V11.353a1.453,1.453,0,0,1,2.905,0v5.713a1.489,1.489,0,0,1-1.453,1.453m-18.4-5.713H38.465V15.71H24.327ZM12.9,21.327H49.892v2.905H12.9ZM44.178,27.04h2.808v2.808H44.178Zm-5.713,0H41.37v2.808H38.465Zm-5.617,0h2.808v2.808H32.848Zm-5.713,0h2.808v2.808H27.135Zm-5.713,0h2.905v2.808H21.422Zm22.757,5.713h2.808v2.808H44.178Zm-5.713,0H41.37v2.808H38.465Zm-5.617,0h2.808v2.808H32.848Zm-5.713,0h2.808v2.808H27.135Zm-5.713,0h2.905v2.808H21.422Zm-5.617,0h2.808v2.808H15.805ZM44.178,38.37h2.808v2.905H44.178Zm-5.713,0H41.37v2.905H38.465Zm-5.617,0h2.808v2.905H32.848Zm-5.713,0h2.808v2.905H27.135Zm-5.713,0h2.905v2.905H21.422Zm-5.617,0h2.808v2.905H15.805Zm22.66,5.713H41.37v2.808H38.465Zm-5.617,0h2.808v2.808H32.848Zm-5.713,0h2.808v2.808H27.135Zm-5.713,0h2.905v2.808H21.422Zm-5.617,0h2.808v2.808H15.805Z" transform="translate(-0.092 0)" fill="#2c5697"/>
  </g>
</svg>
