<svg xmlns="http://www.w3.org/2000/svg" width="41.491" height="41.503" viewBox="0 0 41.491 41.503">
  <path id="dcd6c87adecc5c7e857e0f30112322c3" d="M34.376,5.752a20.022,20.022,0,0,0-5.06-3.559h0A20.106,20.106,0,0,0,5.954,5.9l-.1.1-.1.1A20.241,20.241,0,0,0,2.21,29.434h0a20.123,20.123,0,0,0,3.9,5.263,19.718,19.718,0,0,0,5.364,3.778h0a20.241,20.241,0,0,0,23.243-4.1l.169-.169h0a20.241,20.241,0,0,0-.506-28.455ZM33.2,6.966a18.368,18.368,0,0,1,2.463,2.986L30.952,9.26l-.81-4.706A18.267,18.267,0,0,1,33.2,6.966ZM30.53,10.9l6.224.911a18.639,18.639,0,0,1,1.855,10.88l-5.634,2.952-5.06-1.687-.759-4.436L26.4,15.08ZM28.253,3.509l1.063,6.207L25.3,13.882,16.361,12.6l-.978-2.614-.877-2.361L17.34,1.906a18.436,18.436,0,0,1,10.913,1.6Zm-1.94,20.578-3.846,2.024-3.913,2.024-3-2.986L12.4,22.063l3.846-7.776,8.6,1.248ZM15.181,2.362,13.106,6.747,8.434,5.971a18.436,18.436,0,0,1,6.747-3.61ZM6.747,7.422l6.224,1.012,1.855,4.959-4,8.029-4.369.354L1.923,17.357A18.554,18.554,0,0,1,6.747,7.439ZM1.687,19.5,5.06,22.872,3,27.089A18.436,18.436,0,0,1,1.687,19.5ZM7.27,33.533A18.554,18.554,0,0,1,3.9,29.08l2.851-5.617,4.369-.354,2.631,2.581,3.913,3.829-.236,4.352-5.617,2.9a18.048,18.048,0,0,1-4.52-3.255Zm6.511,4.116,4.251-2.227L21.4,38.8A18.554,18.554,0,0,1,13.8,37.631Zm9.783.86-4.537-4.436.236-4.369L20,29.316l7.287-3.829,5.06,1.687,1.063,6.14a18.436,18.436,0,0,1-9.8,5.178Zm11.217-6.747-.793-4.774,4.2-2.21a18.335,18.335,0,0,1-3.39,6.949Z" transform="translate(0.513 0.515)" fill="#2c5697" stroke="#2c5697" stroke-width="1"/>
</svg>
