<svg xmlns="http://www.w3.org/2000/svg" width="36.824" height="54.985" viewBox="0 0 36.824 54.985">
  <path id="_0fceaa736838ba3fb8683018f3ef4811" data-name="0fceaa736838ba3fb8683018f3ef4811" d="M14.216,34.053a4.54,4.54,0,1,0,4.54,4.54A4.54,4.54,0,0,0,14.216,34.053Zm0,6.811a2.27,2.27,0,1,1,2.27-2.27A2.27,2.27,0,0,1,14.216,40.864ZM38.757,23.315l-2.974-4.7a7.832,7.832,0,0,1-1.2-4.2V5.948l.5-1.022A3.405,3.405,0,0,0,32.105,0h-4a3.405,3.405,0,0,0-3.042,4.926l.5,1.022v8.468a7.832,7.832,0,0,1-1.135,4.223l-2.27,3.519-2.27-3.519a7.946,7.946,0,0,1-1.2-4.2V5.948l.5-1.022A3.405,3.405,0,0,0,16.214,0h-4A3.405,3.405,0,0,0,9.176,4.926l.5,1.022v8.468A7.946,7.946,0,0,1,8.54,18.639l-3,4.654A10.193,10.193,0,0,0,4,28.718V51.08a3.405,3.405,0,0,0,3.405,3.405H21.027a3.36,3.36,0,0,0,1.158-.227,3.292,3.292,0,0,0,1.112.227H36.918a3.405,3.405,0,0,0,3.405-3.405V28.718a10.1,10.1,0,0,0-1.566-5.4Zm-10.92-16.5h4.54v4.54h-4.54Zm-.7-4a1.112,1.112,0,0,1,.976-.545h4A1.135,1.135,0,0,1,33.127,3.9l-.318.636h-5.4L27.088,3.9a1.112,1.112,0,0,1,.045-1.09Zm-15.188,4h4.54v4.54h-4.54Zm-.7-4a1.112,1.112,0,0,1,.976-.545h4A1.135,1.135,0,0,1,17.235,3.9l-.318.636h-5.4L11.2,3.9a1.112,1.112,0,0,1,.045-1.09Zm-3.837,49.4A1.135,1.135,0,0,1,6.27,51.08V28.718a7.946,7.946,0,0,1,1.2-4.2L10.4,19.842a10.193,10.193,0,0,0,1.544-5.426v-.795h4.54v.795a10.193,10.193,0,0,0,1.544,5.4l2.906,4.654.159.272h0a7.923,7.923,0,0,1,1.067,3.973V51.08a1.135,1.135,0,0,1-1.135,1.135ZM38.053,51.08a1.135,1.135,0,0,1-1.135,1.135H24.228a3.36,3.36,0,0,0,.2-1.135V28.718a10.193,10.193,0,0,0-.976-4.336l2.815-4.54a10.1,10.1,0,0,0,1.566-5.426v-.795h4.54v.795a10.1,10.1,0,0,0,1.566,5.4L36.85,24.5a7.832,7.832,0,0,1,1.2,4.223ZM30.108,34.053a4.54,4.54,0,1,0,4.54,4.54A4.54,4.54,0,0,0,30.108,34.053Zm0,6.811a2.27,2.27,0,1,1,2.27-2.27A2.27,2.27,0,0,1,30.108,40.864Z" transform="translate(-3.75 0.25)" fill="#2c5697" stroke="#2c5697" stroke-width="0.5"/>
</svg>
