<svg xmlns="http://www.w3.org/2000/svg" width="94.659" height="94.651" viewBox="0 0 94.659 94.651">
  <g id="_912fde4e78b7eddc70e00041498114e9" data-name="912fde4e78b7eddc70e00041498114e9" transform="translate(-0.998 -1)">
    <g id="Grupo_12180" data-name="Grupo 12180">
      <path id="Trazado_34937" data-name="Trazado 34937" d="M48.046,34.635C45.427,37,36.841,47.022,35.209,48.853a1.935,1.935,0,0,1-1.479.671,2,2,0,0,1-1.479-.671L18.783,34c-6.008-6.429-1.594-17.333,7.079-17.333a9.986,9.986,0,0,1,7.888,4.023,9.919,9.919,0,0,1,7.868-4.023C50.693,16.671,54.935,28.507,48.046,34.635Z" transform="translate(14.594 16.231)" fill="none" stroke="#2c5697" stroke-width="3"/>
      <path id="Trazado_34938" data-name="Trazado 34938" d="M89.789,13.613c-6.869-5.669-17.345-5.378-26.112-3.44C59.425,4.389,54.132,1,48.331,1S37.236,4.389,32.985,10.173c-8.766-1.938-19.243-2.229-26.112,3.44C-3.34,22.049,1.383,37.179,8.78,48.327,1.392,59.462-3.333,74.61,6.872,83.04c6.9,5.691,17.414,5.361,26.112,3.439,4.251,5.783,9.544,9.173,15.346,9.173s11.094-3.389,15.346-9.173c16.621,3.673,31.98-.965,31.98-16.7,0-6.487-2.8-13.949-7.775-21.447C95.269,37.193,99.993,22.042,89.789,13.613Zm-2.511,3.043c8.016,6.62,3.795,19.34-1.812,28.237A90.578,90.578,0,0,0,72.229,30.916a58.582,58.582,0,0,0-6.261-17.208C72.949,12.368,81.793,12.128,87.278,16.656ZM68.05,64.122A99.755,99.755,0,0,1,48.331,76.858,99.755,99.755,0,0,1,28.612,64.122c-.172-.142-.334-.289-.5-.432a81.176,81.176,0,0,1,0-30.73A99.236,99.236,0,0,1,48.331,19.793,99.224,99.224,0,0,1,68.554,32.961a80.111,80.111,0,0,1,1.467,15.365A80.1,80.1,0,0,1,68.554,63.69C68.384,63.833,68.222,63.98,68.05,64.122Zm-1.022,5.821a50.051,50.051,0,0,1-5.2,12.036,72.211,72.211,0,0,1-8.9-3.051A103.635,103.635,0,0,0,67.028,69.943Zm-23.3,8.985a72.207,72.207,0,0,1-8.9,3.051,50.052,50.052,0,0,1-5.2-12.036A103.625,103.625,0,0,0,43.724,78.928ZM23.394,59.5a82.06,82.06,0,0,1-9.858-11.173,82.09,82.09,0,0,1,9.858-11.174,89.823,89.823,0,0,0,0,22.347Zm6.24-32.791a50.051,50.051,0,0,1,5.2-12.036,72.151,72.151,0,0,1,8.9,3.051A103.662,103.662,0,0,0,29.633,26.708Zm23.3-8.985a72.145,72.145,0,0,1,8.9-3.051,50.053,50.053,0,0,1,5.2,12.036A103.643,103.643,0,0,0,52.937,17.723Zm20.331,19.43a82.093,82.093,0,0,1,9.858,11.174A82.058,82.058,0,0,1,73.268,59.5a89.081,89.081,0,0,0,.7-11.174A89.066,89.066,0,0,0,73.268,37.153ZM48.331,4.944c4.019,0,7.823,2.323,11.092,6.317a81.184,81.184,0,0,0-11.092,4.191,81.185,81.185,0,0,0-11.092-4.191C40.507,7.267,44.312,4.944,48.331,4.944ZM9.384,16.656c5.483-4.526,14.324-4.289,21.31-2.948a58.582,58.582,0,0,0-6.261,17.208A90.576,90.576,0,0,0,11.2,44.893C5.6,36.01,1.365,23.279,9.384,16.656ZM9.384,80C1.368,73.377,5.589,60.657,11.2,51.76A90.592,90.592,0,0,0,24.432,65.736a58.584,58.584,0,0,0,6.261,17.208C23.692,84.287,14.854,84.516,9.384,80Zm38.947,11.71c-4.018,0-7.823-2.323-11.091-6.317A81.171,81.171,0,0,0,48.331,81.2a81.171,81.171,0,0,0,11.091,4.191C56.154,89.384,52.349,91.707,48.331,91.707ZM91.712,69.774c0,12.949-12.907,15.633-25.745,13.17a58.584,58.584,0,0,0,6.261-17.208A90.592,90.592,0,0,0,85.465,51.76C89.482,58.135,91.712,64.365,91.712,69.774Z" fill="#2c5697"/>
    </g>
  </g>
</svg>
