<svg xmlns="http://www.w3.org/2000/svg" width="100.26" height="100.671" viewBox="0 0 100.26 100.671">
  <path id="_712f3fe0918544a917b87e3670016e05" data-name="712f3fe0918544a917b87e3670016e05" d="M94.576,31.078a4.949,4.949,0,0,1,3.756,1.734,1.671,1.671,0,0,0,2.928-1.1V14.368A1.671,1.671,0,0,0,99.589,12.7H85.509a8.231,8.231,0,0,0,.712-3.342,8.355,8.355,0,1,0-16.71,0,8.231,8.231,0,0,0,.712,3.342H59.485V2.671A1.671,1.671,0,0,0,57.814,1H40.469a1.671,1.671,0,0,0-1.1,2.928A4.949,4.949,0,0,1,41.1,7.684a5.013,5.013,0,1,1-10.026,0,4.949,4.949,0,0,1,1.734-3.756A1.671,1.671,0,0,0,31.713,1H14.368A1.671,1.671,0,0,0,12.7,2.671v14.08a8.231,8.231,0,0,0-3.342-.712,8.355,8.355,0,1,0,0,16.71,8.231,8.231,0,0,0,3.342-.712V42.775H2.671A1.671,1.671,0,0,0,1,44.446V61.788a1.671,1.671,0,0,0,2.928,1.1,4.956,4.956,0,0,1,3.756-1.731,5.013,5.013,0,0,1,0,10.026,4.949,4.949,0,0,1-3.756-1.734A1.67,1.67,0,0,0,1,70.55V87.892a1.671,1.671,0,0,0,1.671,1.671h14.08a8.221,8.221,0,0,0-.712,3.342,8.355,8.355,0,1,0,16.71,0,8.208,8.208,0,0,0-.712-3.342H42.775V99.589a1.671,1.671,0,0,0,1.671,1.671H61.791a1.671,1.671,0,0,0,1.1-2.931,5.015,5.015,0,1,1,6.56,0,1.671,1.671,0,1,0,1.1,2.931H87.892a1.671,1.671,0,0,0,1.671-1.671V85.509a8.231,8.231,0,0,0,3.342.712,8.355,8.355,0,1,0,0-16.71,8.232,8.232,0,0,0-3.342.712V59.485H99.589a1.671,1.671,0,0,0,1.671-1.671V40.469a1.671,1.671,0,0,0-2.928-1.1A4.95,4.95,0,0,1,94.576,41.1a5.013,5.013,0,0,1,0-10.026Zm-40.1,23.394H47.788V47.788h6.684ZM14.956,27.208a1.671,1.671,0,0,0-1.845.465,4.949,4.949,0,0,1-3.756,1.734,5.013,5.013,0,0,1,0-10.026,4.949,4.949,0,0,1,3.756,1.734,1.671,1.671,0,0,0,2.928-1.1V4.342H28.448a8.231,8.231,0,0,0-.712,3.342,8.355,8.355,0,1,0,16.71,0,8.231,8.231,0,0,0-.712-3.342H56.143v40.1H47.788a1.671,1.671,0,0,0-1.671-1.671H16.039v-14A1.671,1.671,0,0,0,14.956,27.208ZM28.772,86.221a1.671,1.671,0,0,0-1.1,2.931,5.015,5.015,0,1,1-6.56,0,1.671,1.671,0,1,0-1.1-2.931H4.342V73.812a8.231,8.231,0,0,0,3.342.712,8.355,8.355,0,0,0,0-16.71,8.231,8.231,0,0,0-3.342.712V46.117h40.1v40.1ZM87.3,75.049a1.671,1.671,0,0,0,1.845-.465A4.946,4.946,0,0,1,92.9,72.85a5.013,5.013,0,1,1,0,10.026,4.949,4.949,0,0,1-3.756-1.735,1.678,1.678,0,0,0-2.928,1.1V97.918H73.812a8.208,8.208,0,0,0,.712-3.342,8.355,8.355,0,0,0-16.71,0,8.208,8.208,0,0,0,.712,3.342H46.117V89.563a1.671,1.671,0,0,0,1.671-1.671V57.814h6.684a1.671,1.671,0,0,0,1.671,1.671H86.221v14A1.671,1.671,0,0,0,87.3,75.049Zm7.272-30.6a8.231,8.231,0,0,0,3.342-.712V56.143h-40.1V47.788a1.671,1.671,0,0,0,1.671-1.671V16.039h14a1.671,1.671,0,0,0,1.1-2.928,4.95,4.95,0,0,1-1.734-3.756,5.013,5.013,0,0,1,10.026,0,4.949,4.949,0,0,1-1.734,3.756,1.671,1.671,0,0,0,1.1,2.928H97.918V28.448a8.231,8.231,0,0,0-3.342-.712,8.355,8.355,0,0,0,0,16.71Z" transform="translate(-1 -1)" fill="#2c5697"/>
</svg>
