<svg xmlns="http://www.w3.org/2000/svg" width="51.412" height="35.502" viewBox="0 0 51.412 35.502">
  <path id="_7ffee5454e67a1c47b8e719ba4fb8d7b" data-name="7ffee5454e67a1c47b8e719ba4fb8d7b" d="M50.117,20H.8a.8.8,0,0,0-.8.8V54.207a.8.8,0,0,0,.8.8H50.117a.8.8,0,0,0,.8-.8V20.8A.8.8,0,0,0,50.117,20Zm-.8,28.515-9.439-6.241h9.439Zm0-15.787H40.01L49.321,26.5Zm0-8.146L37.146,32.728H30.229V31.483l14.959-9.892h4.133ZM34.708,26.615l-4.479,2.963V21.591H42.3ZM20.683,21.591v7.987L16.2,26.615l-7.6-5.024Zm-19.092,0H5.724l14.959,9.892v1.245H13.921l-12.33-8.15Zm0,20.683H11.03L1.591,48.515Zm0-15.787,9.439,6.241H1.591Zm0,26.924V50.424l12.33-8.15h6.762v1.245L5.724,53.411Zm19.092,0H8.607l12.076-7.987Zm1.591,0V41.479a.8.8,0,0,0-.8-.8H1.591V34.319H21.479a.8.8,0,0,0,.8-.8V21.591h6.364V33.524a.8.8,0,0,0,.8.8H49.321v6.364H29.434a.8.8,0,0,0-.8.8V53.411Zm7.955-7.987L42.3,53.411H30.229Zm19.092,7.987H45.188L30.229,43.519V42.274h6.762l12.33,8.15Z" transform="translate(0.25 -19.75)" fill="#2c5697" stroke="#2c5697" stroke-width="0.5"/>
</svg>
