<svg xmlns="http://www.w3.org/2000/svg" width="54.136" height="52.447" viewBox="0 0 54.136 52.447">
  <g id="_16f0e3bb0c33da3d55e84d14fd5387c6" data-name="16f0e3bb0c33da3d55e84d14fd5387c6" transform="translate(-1 4.79)">
    <path id="Trazado_34922" data-name="Trazado 34922" d="M22.155,25.661H16.429a5.008,5.008,0,0,0,.684-2.542,5.069,5.069,0,0,0-.693-2.568,8.825,8.825,0,0,1-1.056-2.838.642.642,0,0,0-.625-.515H12.653V15.846a2.745,2.745,0,1,0-1.267,0V17.2H9.3a.642.642,0,0,0-.625.515,8.826,8.826,0,0,1-1.056,2.838,5.069,5.069,0,0,0-.693,2.568,5.008,5.008,0,0,0,.684,2.542H1.883a.638.638,0,0,0-.633.633V49.1a.638.638,0,0,0,.633.633H4.417a.637.637,0,0,0,.6-.431l.7-2.1h12.6l.7,2.1a.626.626,0,0,0,.6.431h2.534a.638.638,0,0,0,.633-.633V26.294A.638.638,0,0,0,22.155,25.661ZM10.541,13.194a1.478,1.478,0,1,1,1.478,1.478A1.485,1.485,0,0,1,10.541,13.194ZM8.193,23.118a3.77,3.77,0,0,1,.524-1.926,10.207,10.207,0,0,0,1.1-2.72h4.409a9.829,9.829,0,0,0,1.1,2.72,3.855,3.855,0,0,1,.524,1.926,3.8,3.8,0,0,1-.971,2.542h-5.7A3.771,3.771,0,0,1,8.193,23.118ZM2.517,26.928l8.869.017V45.933H2.517ZM3.961,48.467H2.517V47.2H4.384Zm8.692-21.522,8.869-.017v19H12.653Zm8.869,21.522H20.078L19.655,47.2h1.867Zm30.83-12.6V32.207a2.322,2.322,0,0,0-2.323-2.323H29.757a2.322,2.322,0,0,0-2.323,2.323v3.657a3.17,3.17,0,0,0-2.534,3.1V49.1a.638.638,0,0,0,.633.633H54.253a.638.638,0,0,0,.633-.633V38.964A3.163,3.163,0,0,0,52.352,35.864ZM29.757,31.151H50.029a1.056,1.056,0,0,1,1.056,1.056v3.657a3.17,3.17,0,0,0-2.534,3.1v2.745H31.236V38.964a3.163,3.163,0,0,0-2.534-3.1V32.207A1.056,1.056,0,0,1,29.757,31.151Zm1.478,11.825H48.551v1.056A1.056,1.056,0,0,1,47.5,45.088h-15.2a1.056,1.056,0,0,1-1.056-1.056Zm22.384,5.49H26.168v-9.5a1.9,1.9,0,1,1,3.8,0v5.068a2.322,2.322,0,0,0,2.323,2.323H47.5a2.322,2.322,0,0,0,2.323-2.323V38.964a1.9,1.9,0,1,1,3.8,0Z" transform="translate(0 -2.327)" fill="#2c5697" stroke="#2c5697" stroke-width="0.5"/>
    <path id="Trazado_34923" data-name="Trazado 34923" d="M46.884,43.795a.638.638,0,0,0,.633-.633V38.093a.633.633,0,1,0-1.267,0v5.068A.638.638,0,0,0,46.884,43.795Z" transform="translate(-6.99 -6.524)" fill="#2c5697" stroke="#2c5697" stroke-width="0.5"/>
    <circle id="Elipse_70" data-name="Elipse 70" cx="0.845" cy="0.845" r="0.845" transform="translate(32.291 32.414)" fill="#2c5697" stroke="#2c5697" stroke-width="0.5"/>
    <circle id="Elipse_71" data-name="Elipse 71" cx="0.845" cy="0.845" r="0.845" transform="translate(35.67 32.414)" fill="#2c5697" stroke="#2c5697" stroke-width="0.5"/>
    <circle id="Elipse_72" data-name="Elipse 72" cx="0.845" cy="0.845" r="0.845" transform="translate(33.981 30.725)" fill="#2c5697" stroke="#2c5697" stroke-width="0.5"/>
    <circle id="Elipse_73" data-name="Elipse 73" cx="0.845" cy="0.845" r="0.845" transform="translate(33.981 34.103)" fill="#2c5697" stroke="#2c5697" stroke-width="0.5"/>
    <circle id="Elipse_74" data-name="Elipse 74" cx="0.845" cy="0.845" r="0.845" transform="translate(42.427 32.414)" fill="#2c5697" stroke="#2c5697" stroke-width="0.5"/>
    <circle id="Elipse_75" data-name="Elipse 75" cx="0.845" cy="0.845" r="0.845" transform="translate(45.806 32.414)" fill="#2c5697" stroke="#2c5697" stroke-width="0.5"/>
    <circle id="Elipse_76" data-name="Elipse 76" cx="0.845" cy="0.845" r="0.845" transform="translate(44.117 30.725)" fill="#2c5697" stroke="#2c5697" stroke-width="0.5"/>
    <circle id="Elipse_77" data-name="Elipse 77" cx="0.845" cy="0.845" r="0.845" transform="translate(44.117 34.103)" fill="#2c5697" stroke="#2c5697" stroke-width="0.5"/>
    <path id="Trazado_34924" data-name="Trazado 34924" d="M10.883,37.271a.638.638,0,0,0,.633-.633V31.569a.633.633,0,0,0-1.267,0v5.068A.638.638,0,0,0,10.883,37.271Zm5.068-6.335a.638.638,0,0,0-.633.633v5.068a.633.633,0,0,0,1.267,0V31.569A.638.638,0,0,0,15.951,30.936ZM55.651-4.54H30.311a.638.638,0,0,0-.633.633V14.676a.638.638,0,0,0,.633.633h25.34a.638.638,0,0,0,.633-.633V-3.907A.638.638,0,0,0,55.651-4.54ZM30.944-2.378,33.056-.266v11.3l-2.112,2.112ZM47.466,10.664l-1.9-1.9,3.328-3.328,2.745,2.745v2.483H47.466ZM51.638,6.39l-2.3-2.3a.637.637,0,0,0-.9,0L44.67,7.868l-4.62-4.62a.637.637,0,0,0-.9,0L34.323,8.079V.106H51.638V6.39ZM34.323,9.87,39.6,4.591l6.073,6.073H34.323ZM52.01-1.161H33.951L31.84-3.273H54.122ZM33.951,11.931H52.01l2.112,2.112H31.84Zm18.954-.9V-.266l2.112-2.112V13.147Z" transform="translate(-1.398)" fill="#2c5697" stroke="#2c5697" stroke-width="0.5"/>
    <path id="Trazado_34925" data-name="Trazado 34925" d="M50.573,7.106A2.323,2.323,0,1,0,48.25,4.783,2.322,2.322,0,0,0,50.573,7.106Zm0-3.379a1.056,1.056,0,1,1-1.056,1.056A1.056,1.056,0,0,1,50.573,3.727Z" transform="translate(-7.301 -1.087)" fill="#2c5697" stroke="#2c5697" stroke-width="0.5"/>
  </g>
</svg>
