<svg xmlns="http://www.w3.org/2000/svg" width="52.875" height="52.929" viewBox="0 0 52.875 52.929">
  <path id="e8d635d62bd38016660256f566bd91bc" d="M22.562,44.791a3.277,3.277,0,0,1-1.778.533h-.018a3.279,3.279,0,0,1-1.759-.533.767.767,0,1,0-.843,1.282,4.763,4.763,0,0,0,2.594.785h.026a4.833,4.833,0,0,0,2.621-.785.767.767,0,0,0-.843-1.282Zm-6.381-5.445a.767.767,0,1,0,.767.767A.767.767,0,0,0,16.182,39.346ZM35.658,28.318a9.084,9.084,0,0,0-6.514-.4,13.491,13.491,0,0,0-12.211-2.344.761.761,0,0,0-.085.025,13.485,13.485,0,0,0-4.42,2.32,9.088,9.088,0,0,0-6.516.4A9.425,9.425,0,0,0,1.34,32.926a14.369,14.369,0,0,0-1.3,7.345.767.767,0,0,0,.976.682,21.4,21.4,0,0,0,4.373-1.792c.624-.341,1.264-.735,1.9-1.164q-.01.262-.011.524a13.509,13.509,0,0,0,27.019,0q0-.263-.011-.524c.634.429,1.275.823,1.9,1.164a21.37,21.37,0,0,0,4.372,1.792.767.767,0,0,0,.976-.682,14.37,14.37,0,0,0-1.3-7.345,9.425,9.425,0,0,0-4.571-4.607ZM20.785,26.545a12,12,0,0,1,11.67,9.283,12.922,12.922,0,0,1-6.016.25,10.7,10.7,0,0,1-5.507-2.9,9.988,9.988,0,0,1-1.269-1.568c-.007-.011-.015-.022-.022-.033a11.466,11.466,0,0,1-1.7-4.686,11.96,11.96,0,0,1,2.841-.341Zm-4.323.808a13.11,13.11,0,0,0,1.554,4.5,15.846,15.846,0,0,1-8.849,3.762,12.025,12.025,0,0,1,7.295-8.264ZM4.651,37.815a19.844,19.844,0,0,1-3.121,1.37A12.482,12.482,0,0,1,2.718,33.6a7.914,7.914,0,0,1,3.818-3.88,8.384,8.384,0,0,1,4.565-.606,13.488,13.488,0,0,0-3.575,6.825,23.639,23.639,0,0,1-2.874,1.876ZM20.785,50.5a11.974,11.974,0,0,1-11.9-13.316,17.376,17.376,0,0,0,9.987-4.039,11.481,11.481,0,0,0,.971,1.114,12.234,12.234,0,0,0,6.291,3.327,13.88,13.88,0,0,0,2.76.274,14.837,14.837,0,0,0,3.809-.5q.056.577.057,1.168A11.989,11.989,0,0,1,20.785,50.5ZM36.92,37.815a23.651,23.651,0,0,1-2.874-1.875,13.492,13.492,0,0,0-3.575-6.826,8.378,8.378,0,0,1,4.563.606,7.914,7.914,0,0,1,3.818,3.88,12.481,12.481,0,0,1,1.189,5.585,19.8,19.8,0,0,1-3.12-1.37ZM51.613,8.847l0-.009a.77.77,0,0,0-.035-.1A13.664,13.664,0,0,0,32.769,1.013a.773.773,0,0,0-.074.032q-.034.017-.066.038A13.665,13.665,0,1,0,51.613,8.847ZM38.7,1.192A12.15,12.15,0,0,1,49.837,8.514a14.993,14.993,0,0,1-8.22-.5,15.152,15.152,0,0,1-7.463-5.939A12.067,12.067,0,0,1,38.7,1.192ZM32.627,2.825A6.779,6.779,0,0,1,31.4,9.165a6.851,6.851,0,0,1-4.685,2.278,12.162,12.162,0,0,1,5.913-8.618ZM38.7,25.457A12.146,12.146,0,0,1,26.568,13.325q0-.167,0-.332a8.375,8.375,0,0,0,6-2.835,8.144,8.144,0,0,0,1.9-5.182A16.354,16.354,0,0,0,41.1,9.461a16.556,16.556,0,0,0,9.26.508A12.135,12.135,0,0,1,38.7,25.457Zm4.6-12.9a.767.767,0,1,0,.767.767A.767.767,0,0,0,43.3,12.558ZM25.388,39.346a.767.767,0,1,0,.767.767.767.767,0,0,0-.767-.767ZM40.478,18.708a3.277,3.277,0,0,1-1.778.533h-.018a3.279,3.279,0,0,1-1.759-.533.767.767,0,1,0-.843,1.282,4.763,4.763,0,0,0,2.594.785H38.7a4.823,4.823,0,0,0,2.622-.785.767.767,0,1,0-.843-1.282ZM34.1,12.558a.767.767,0,1,0,.767.767.767.767,0,0,0-.767-.767Z" transform="translate(0.258 0.649)" fill="#2c5697" stroke="#2c5697" stroke-width="0.5"/>
</svg>
