<svg xmlns="http://www.w3.org/2000/svg" width="51.249" height="50.388" viewBox="0 0 51.249 50.388">
  <path id="a0662266d237da990f77024145467af3" d="M4.536,16.529h3.7a3.078,3.078,0,0,0,.381.3l-3,9.005H3.47a1.454,1.454,0,0,0-1.057.465A1.615,1.615,0,0,0,2,27.521c.4,4.82,4.025,8.456,8.456,8.456s8.05-3.636,8.456-8.456A1.615,1.615,0,0,0,18.5,26.3a1.454,1.454,0,0,0-1.065-.465H15.291l-3-9.005a3.078,3.078,0,0,0,.38-.3H24.829V44.686c-4.016.778-7.077,3.382-7.542,6.511h-3.45v1.691H40.895V51.2h-3.45c-.465-3.162-3.526-5.733-7.542-6.511V16.529H42.062a3.078,3.078,0,0,0,.381.3l-3,9.005H37.293a1.454,1.454,0,0,0-1.057.465,1.615,1.615,0,0,0-.414,1.226c.4,4.82,4.025,8.456,8.456,8.456s8.05-3.636,8.456-8.456a1.615,1.615,0,0,0-.406-1.226,1.454,1.454,0,0,0-1.065-.465H49.113l-3-9.005a3.078,3.078,0,0,0,.38-.3h3.7a2.537,2.537,0,1,0,0-5.073h-3.7a3.323,3.323,0,0,0-4.431,0H29.9V5.537a2.537,2.537,0,1,0-5.073,0v5.919H12.67a3.323,3.323,0,0,0-4.431,0h-3.7a2.537,2.537,0,0,0,0,5.073Zm5.919,17.757c-3.509,0-6.4-2.926-6.764-6.764H17.219C16.83,31.385,13.947,34.286,10.454,34.286Zm3.052-8.456H7.4l2.824-8.456a2.1,2.1,0,0,0,.228,0,2.1,2.1,0,0,0,.228,0ZM35.737,51.2H18.995c.592-2.866,4.118-5.073,8.371-5.073S35.145,48.33,35.737,51.2Zm8.54-16.911c-3.509,0-6.4-2.926-6.764-6.764H51.041C50.652,31.385,47.769,34.286,44.277,34.286Zm3.052-8.456h-6.1l2.824-8.456a1.04,1.04,0,0,0,.457,0Zm3.712-11.838a.846.846,0,0,1-.846.846H47.541a3.078,3.078,0,0,0,0-1.691H50.2A.846.846,0,0,1,51.041,13.992ZM44.277,12.3a1.691,1.691,0,1,1-1.691,1.691A1.691,1.691,0,0,1,44.277,12.3Zm-3.264.846a3.078,3.078,0,0,0,0,1.691H29.9V13.147ZM27.366,4.691a.846.846,0,0,1,.846.846v38.9H26.52V5.537A.846.846,0,0,1,27.366,4.691ZM24.829,14.838H13.718a3.078,3.078,0,0,0,0-1.691H24.829ZM10.454,12.3a1.691,1.691,0,1,1-1.691,1.691A1.691,1.691,0,0,1,10.454,12.3Zm-6.5,1.091a.786.786,0,0,1,.583-.245H7.191a3.078,3.078,0,0,0,0,1.691H4.536a.837.837,0,0,1-.583-1.446Z" transform="translate(-1.742 -2.75)" fill="#2c5697" stroke="#2c5697" stroke-width="0.5"/>
</svg>
