<svg xmlns="http://www.w3.org/2000/svg" width="49.815" height="41.832" viewBox="0 0 49.815 41.832">
  <g id="df9ded271c2f0d065f6c69ef93def8bd" transform="translate(-19.75 -82.75)">
    <path id="Trazado_34928" data-name="Trazado 34928" d="M127.944,151.672h4.167a.836.836,0,1,0,0-1.672h-4.167a.836.836,0,0,0,0,1.672Zm0,5.12h9.866a.836.836,0,0,0,0-1.672h-9.866a.836.836,0,0,0,0,1.672Zm0,5.12h9.866a.836.836,0,1,0,0-1.672h-9.866a.836.836,0,0,0,0,1.672Zm0,5.12h9.866a.836.836,0,1,0,0-1.672h-9.866a.836.836,0,1,0,0,1.672Zm-19.462-15.359h4.166a.836.836,0,1,0,0-1.672h-4.166a.836.836,0,1,0,0,1.672Zm0,5.12h9.866a.836.836,0,0,0,0-1.672h-9.866a.836.836,0,0,0,0,1.672Zm0,5.12h9.866a.836.836,0,0,0,0-1.672h-9.866a.836.836,0,1,0,0,1.672Zm0,5.12h9.866a.836.836,0,0,0,0-1.672h-9.866a.836.836,0,1,0,0,1.672Z" transform="translate(-78.489 -58.103)" fill="#2c5697" stroke="#2c5697" stroke-width="0.5"/>
    <path id="Trazado_34929" data-name="Trazado 34929" d="M68.431,88.614h-3.4V87.7A4.439,4.439,0,0,0,60.947,83h-10.6a3.642,3.642,0,0,0-1.4.294l-3.467,1.448a2.142,2.142,0,0,1-1.655,0l-3.467-1.452a3.639,3.639,0,0,0-1.4-.293h-10.6a4.439,4.439,0,0,0-4.084,4.7v.91h-3.4A.966.966,0,0,0,20,89.6v33.754a.964.964,0,0,0,.885.981H68.431a.964.964,0,0,0,.885-.981V89.6A.966.966,0,0,0,68.431,88.614ZM49.523,85.09a2.161,2.161,0,0,1,.828-.179h10.6A2.633,2.633,0,0,1,63.36,87.7v25.914a2.553,2.553,0,0,1-2.413,2.709h-10.6a3.663,3.663,0,0,0-1.4.312l-3.459,1.468V86.727a3.739,3.739,0,0,0,.563-.188ZM25.955,87.7a2.633,2.633,0,0,1,2.413-2.793h10.6a2.16,2.16,0,0,1,.827.179l3.467,1.448a3.742,3.742,0,0,0,.563.189v31.381l-3.458-1.468a3.662,3.662,0,0,0-1.4-.312h-10.6a2.553,2.553,0,0,1-2.413-2.709Zm41.688,34.716H21.672V90.526h2.612v23.093a4.978,4.978,0,0,0,1.2,3.283,3.8,3.8,0,0,0,2.884,1.337h10.6a2.184,2.184,0,0,1,.827.2l3.467,1.456a3.6,3.6,0,0,0,2.8.011l3.467-1.469a2.181,2.181,0,0,1,.828-.195h10.6a3.8,3.8,0,0,0,2.884-1.337,4.978,4.978,0,0,0,1.2-3.283V90.526h2.612Z" fill="#2c5697" stroke="#2c5697" stroke-width="0.5"/>
  </g>
</svg>
